<svg width="522" height="37" viewBox="0 0 522 37" fill="none" xmlns="http://www.w3.org/2000/svg">
<path d="M0.902344 8.25947H4.48542V10.4556C7.02827 8.72184 10.2647 7.79718 14.1945 7.79718H14.3101C16.8529 7.79718 18.8179 8.02836 20.2049 8.60628C21.5919 9.06862 22.6321 9.99328 23.3256 11.2647C24.3659 10.34 25.8685 9.5309 27.949 8.8374C29.9139 8.14389 31.9945 7.79718 34.1906 7.79718H34.3061C37.0801 7.79718 39.2762 8.14392 40.6632 8.72184C42.0503 9.29976 43.0905 10.34 43.5528 11.727C44.0152 13.114 44.3619 14.9634 44.3619 17.5062V28.14H40.5477V19.24C40.5477 17.1595 40.4321 15.6569 40.201 14.6166C39.9698 13.5763 39.2763 12.6517 38.236 11.9582C37.1957 11.2647 35.462 10.918 33.1503 10.918H33.0347C30.8386 10.918 29.1048 11.2647 27.6023 11.8426C26.0997 12.5361 25.0594 13.2296 24.3659 14.1543V28.14H20.7828V19.24C20.7828 17.1595 20.6672 15.6569 20.436 14.6166C20.2049 13.5763 19.5114 12.6517 18.4711 11.9582C17.4309 11.2647 15.6971 10.918 13.2699 10.918H13.1542C10.9581 10.918 9.10878 11.2647 7.72177 11.8426C6.21917 12.5361 5.17893 13.2296 4.48542 14.1543V28.14H0.902344V8.25947Z" fill="#F1F1F1"/>
<path d="M51.2969 25.9439C49.1008 24.2101 48.0605 21.6672 48.0605 18.0841C48.0605 14.6166 49.1008 12.0738 51.1813 10.34C53.2618 8.60628 56.6138 7.79718 61.2372 7.79718H61.3527C64.0111 7.79718 66.2073 8.02836 67.941 8.60628C69.6748 9.1842 71.1773 9.99324 72.102 11.1491V8.25947H75.6852V28.0244H72.102V25.0192C70.0215 27.3309 66.4384 28.3711 61.3527 28.3711H61.2372C56.7294 28.4867 53.3774 27.6777 51.2969 25.9439ZM61.5839 25.366C65.2826 25.366 67.941 24.7881 69.5592 23.6322C71.1773 22.4764 71.9865 20.627 71.9865 18.1998C71.9865 15.6569 71.1773 13.8076 69.5592 12.6517C67.941 11.4959 65.2826 10.918 61.5839 10.918H61.4683C58.9254 10.918 56.9605 11.1491 55.458 11.6114C53.9554 12.0738 52.7995 12.8829 52.106 13.9231C51.4125 14.9634 51.0657 16.3504 51.0657 18.0841C51.0657 19.8179 51.4125 21.2049 52.106 22.2452C52.7995 23.2855 53.9554 24.0945 55.458 24.5569C56.9605 25.0192 59.041 25.366 61.5839 25.366Z" fill="#F1F1F1"/>
<path d="M79.6094 8.25947H83.1925V11.0335C84.1172 9.99326 85.5042 9.29976 87.3535 8.72184C89.2029 8.14392 91.0522 7.79718 93.0172 7.79718H93.1327C95.2132 7.79718 96.947 8.02832 98.2185 8.49066V11.4959C97.6405 11.2647 96.947 11.0335 96.1379 11.0335C95.3288 11.0335 94.173 10.918 92.6704 10.918H92.5548C90.8211 10.918 89.2029 11.1491 87.8159 11.727C86.4289 12.3049 85.3886 12.8828 84.5795 13.4608C83.7704 14.1543 83.3081 14.5011 83.1925 14.7322V28.14H79.6094V8.25947Z" fill="#F1F1F1"/>
<path d="M103.078 3.40497H106.661V14.1543L119.491 8.83737H126.195L110.013 16.1192L127.004 28.1399H121.456L106.892 18.0841H106.777V28.1399H103.194V3.40497H103.078Z" fill="#F1F1F1"/>
<path d="M132.67 26.0572C130.474 24.4391 129.434 21.7806 129.434 18.3131C129.434 15.6546 130.012 13.5742 131.167 12.0716C132.323 10.569 133.826 9.5287 135.906 8.95078C137.871 8.37286 140.298 8.02612 143.188 8.02612C147.465 8.02612 150.701 8.71957 152.897 9.991C155.093 11.2624 156.365 13.343 156.827 16.117C156.943 16.6949 156.943 17.504 156.943 18.7754H132.901C133.017 20.3936 133.363 21.665 134.057 22.7053C134.75 23.7455 135.906 24.4391 137.293 24.9014C138.796 25.3637 140.761 25.5949 143.188 25.5949H143.304C146.309 25.5949 148.621 25.2482 150.123 24.5547C151.626 23.8611 152.782 22.8209 153.244 21.3183H156.711C156.134 23.8612 154.862 25.7105 152.666 26.8663C150.47 28.0222 147.349 28.6001 143.304 28.6001H143.188C138.334 28.4845 134.866 27.6754 132.67 26.0572ZM150.354 12.0716C148.736 11.2625 146.424 10.9157 143.188 10.9157H143.073C139.952 10.9157 137.524 11.2625 135.906 12.0716C134.288 12.8807 133.363 14.152 133.017 16.0014H153.244C152.897 14.152 151.972 12.8807 150.354 12.0716Z" fill="#F1F1F1"/>
<path d="M168.149 27.4482C166.878 26.9859 165.953 26.0612 165.375 24.9054C164.797 23.6339 164.566 21.9002 164.566 19.5885V11.382H159.596V8.37683H164.566V3.86902L168.033 3.52228V8.37683H176.933V11.382H168.033V19.5885C168.033 21.0911 168.264 22.247 168.611 23.056C168.958 23.8651 169.536 24.3275 170.229 24.5586C170.923 24.7898 171.963 24.9054 173.235 24.9054H177.974V28.1417H173.581C171.27 28.1417 169.42 27.9106 168.149 27.4482Z" fill="#F1F1F1"/>
<path d="M182.014 0.39856H185.597V4.32845H182.014V0.39856ZM182.014 11.1479V8.25827H185.597V25.2492V28.1388H182.014V25.2492V11.1479Z" fill="#F1F1F1"/>
<path d="M189.41 8.25947H192.994V10.4556C194.149 9.64651 195.652 9.06858 197.501 8.49066C199.466 8.02832 201.431 7.79718 203.627 7.79718H203.743C206.517 7.79718 208.597 8.14392 209.984 8.72184C211.371 9.29976 212.412 10.34 212.99 11.727C213.568 13.114 213.799 15.079 213.799 17.7374V28.14H210.216V19.24C210.216 17.1595 210.1 15.6569 209.869 14.6166C209.638 13.5763 208.944 12.6517 207.904 11.9582C206.864 11.2647 205.13 10.918 202.703 10.918H202.587C200.391 10.918 198.542 11.2647 196.808 11.8426C195.19 12.5361 193.803 13.2296 192.878 14.1543V28.14H189.295V8.25947H189.41Z" fill="#F1F1F1"/>
<path d="M224.781 36.2286C222.816 35.8819 221.314 35.304 220.273 34.7261V31.7209C221.429 32.2988 222.932 32.7611 224.781 33.2235C226.63 33.5702 228.711 33.8014 231.023 33.8014H231.138C234.375 33.8014 236.917 33.339 238.882 32.5299C240.847 31.7208 241.772 30.3338 241.772 28.7157V25.1326C239.807 27.3287 236.224 28.4845 231.023 28.4845H230.907C226.399 28.4845 223.047 27.6754 220.967 26.0572C218.771 24.4391 217.73 21.8962 217.73 18.3131C217.73 14.8456 218.771 12.3027 220.851 10.5689C222.932 8.83516 226.284 8.02612 230.907 8.02612H231.023C236.224 8.02612 239.807 9.18192 241.888 11.378V8.48842H245.471V28.1377C245.471 29.6403 245.24 30.9118 244.777 32.1832C244.315 33.339 243.043 34.4949 241.078 35.4195C238.998 36.3442 235.993 36.9222 231.716 36.9222H231.601C228.942 36.8066 226.746 36.5754 224.781 36.2286ZM237.264 24.5547C238.767 24.0923 239.923 23.2832 240.616 22.243C241.31 21.2027 241.656 19.8157 241.656 18.0819C241.656 16.3481 241.31 15.0767 240.616 13.9209C239.923 12.7651 238.767 12.0715 237.264 11.6092C235.762 11.1469 233.681 10.8001 231.138 10.8001H231.023C228.48 10.8001 226.515 11.0313 225.012 11.4937C223.51 11.956 222.469 12.7651 221.776 13.8053C221.082 14.8456 220.736 16.2326 220.736 17.9663C220.736 19.7001 221.082 21.0871 221.776 22.1273C222.469 23.1676 223.51 23.9767 225.012 24.439C226.515 24.9014 228.48 25.1326 230.907 25.1326H231.023C233.681 25.3638 235.762 25.1326 237.264 24.5547Z" fill="#F1F1F1"/>
<path d="M271.247 27.677C269.282 26.9835 267.779 26.0588 266.739 24.903C265.699 23.6315 265.236 22.2445 265.236 20.5108C265.236 19.0082 265.699 17.7367 266.508 16.5809C267.432 15.425 268.588 14.5004 270.091 13.8069C268.935 12.7666 268.473 11.264 268.473 9.41465C268.473 7.68088 269.282 6.1783 270.669 5.02246C272.171 3.86662 274.599 3.2887 278.066 3.2887C280.84 3.2887 282.921 3.51988 284.539 4.0978C286.041 4.67572 287.197 5.60038 287.891 6.75622C288.584 8.02765 288.815 9.64586 288.815 11.842H285.464C285.464 10.4549 285.232 9.29908 284.77 8.48999C284.308 7.6809 283.614 7.10298 282.574 6.75622C281.534 6.40947 280.147 6.1783 278.413 6.1783C276.217 6.1783 274.599 6.40949 273.558 6.98741C272.518 7.56533 272.056 8.37443 272.056 9.53027C272.056 10.1082 272.171 10.6861 272.518 11.264C272.865 11.842 273.443 12.3043 274.252 12.8822L287.544 20.742C288.122 19.8173 288.469 18.8926 288.584 18.0835C288.7 17.2744 288.815 16.2342 288.815 14.9627H292.283C292.283 16.3498 292.167 17.6212 291.821 19.0082C291.474 20.2796 291.127 21.5511 290.549 22.4757L292.514 23.6316L290.78 26.0588L288.584 24.7874C287.313 26.0588 285.81 26.9835 284.077 27.5614C282.343 28.1393 280.378 28.4861 278.182 28.4861C275.523 28.7172 273.212 28.3705 271.247 27.677ZM282.458 25.1342C283.614 24.7874 284.77 24.0938 285.695 23.2848L272.518 15.425C271.247 16.1186 270.206 16.812 269.513 17.5055C268.819 18.3146 268.473 19.1237 268.473 20.0484C268.473 21.8978 269.397 23.2848 271.247 24.2095C273.096 25.1342 275.523 25.5964 278.297 25.5964C279.916 25.712 281.187 25.4809 282.458 25.1342Z" fill="#F1F1F1"/>
<path d="M315.978 25.1336V28.1388H312.395V0.39856H315.978V11.2635C318.058 9.0674 321.641 7.91153 326.727 7.91153H326.843C331.35 7.91153 334.702 8.72066 336.783 10.3388C338.863 11.957 340.019 14.6154 340.019 18.0829C340.019 21.666 338.979 24.2089 336.783 25.9427C334.587 27.6765 331.35 28.4855 326.843 28.4855H326.727C321.641 28.4855 318.058 27.3297 315.978 25.1336ZM332.506 24.6712C334.009 24.2089 335.165 23.3998 335.858 22.3596C336.552 21.3193 336.898 19.9323 336.898 18.1985C336.898 16.4648 336.552 15.0777 335.858 14.0375C335.165 12.9972 334.009 12.1881 332.506 11.7258C331.004 11.2635 329.039 11.0323 326.496 11.0323H326.38C322.681 11.0323 320.023 11.6102 318.405 12.7661C316.787 13.9219 315.978 15.7713 315.978 18.3141C315.978 20.857 316.787 22.5907 318.405 23.7466C320.023 24.9024 322.681 25.4803 326.38 25.4803H326.496C329.039 25.3648 331.004 25.1336 332.506 24.6712Z" fill="#F1F1F1"/>
<path d="M343.957 8.25947H347.54V11.0335C348.465 9.99326 349.852 9.29976 351.701 8.72184C353.551 8.14392 355.4 7.79718 357.365 7.79718H357.48C359.561 7.79718 361.295 8.02832 362.566 8.49066V11.4959C361.988 11.2647 361.295 11.0335 360.486 11.0335C359.676 11.0335 358.521 10.918 357.018 10.918H356.902C355.169 10.918 353.55 11.1491 352.163 11.727C350.776 12.3049 349.736 12.8828 348.927 13.4608C348.118 14.1543 347.656 14.5011 347.54 14.7322V28.14H343.957V8.25947Z" fill="#F1F1F1"/>
<path d="M369.609 25.9439C367.413 24.2101 366.373 21.6672 366.373 18.0841C366.373 14.6166 367.413 12.0738 369.494 10.34C371.574 8.60628 374.926 7.79718 379.55 7.79718H379.665C382.324 7.79718 384.52 8.02836 386.253 8.60628C387.987 9.1842 389.49 9.99324 390.415 11.1491V8.25947H393.998V28.0244H390.415V25.0192C388.334 27.3309 384.751 28.3711 379.665 28.3711H379.55C375.157 28.4867 371.805 27.6777 369.609 25.9439ZM380.012 25.366C383.711 25.366 386.369 24.7881 387.987 23.6322C389.605 22.4764 390.415 20.627 390.415 18.1998C390.415 15.6569 389.605 13.8076 387.987 12.6517C386.369 11.4959 383.711 10.918 380.012 10.918H379.896C377.353 10.918 375.389 11.1491 373.886 11.6114C372.383 12.0738 371.228 12.8829 370.534 13.9231C369.841 14.9634 369.494 16.3504 369.494 18.0841C369.494 19.8179 369.841 21.2049 370.534 22.2452C371.228 23.2855 372.383 24.0945 373.886 24.5569C375.389 25.0192 377.354 25.366 380.012 25.366Z" fill="#F1F1F1"/>
<path d="M397.932 8.25947H401.515V10.4556C402.671 9.64651 404.174 9.06858 406.023 8.49066C407.988 8.02832 409.953 7.79718 412.149 7.79718H412.264C415.038 7.79718 417.119 8.14392 418.506 8.72184C419.893 9.29976 420.933 10.34 421.511 11.727C422.089 13.114 422.32 15.079 422.32 17.7374V28.14H418.737V19.24C418.737 17.1595 418.622 15.6569 418.39 14.6166C418.159 13.5763 417.466 12.6517 416.425 11.9582C415.385 11.2647 413.651 10.918 411.224 10.918H411.109C408.912 10.918 407.063 11.2647 405.329 11.8426C403.711 12.5361 402.324 13.2296 401.4 14.1543V28.14H397.816V8.25947H397.932Z" fill="#F1F1F1"/>
<path d="M429.486 25.9427C427.29 24.3245 426.25 21.666 426.25 18.0829C426.25 14.4998 427.29 11.957 429.486 10.3388C431.567 8.72066 434.919 7.91153 439.427 7.91153H439.542C444.743 7.91153 448.327 9.0674 450.291 11.2635V0.39856H453.875V28.1388H450.291V25.1336C448.211 27.4453 444.628 28.4855 439.542 28.4855H439.427C435.034 28.4855 431.682 27.6765 429.486 25.9427ZM439.773 25.3648C443.472 25.3648 446.13 24.7869 447.749 23.631C449.367 22.4752 450.176 20.6258 450.176 18.1985C450.176 15.6557 449.367 13.8064 447.749 12.6505C446.13 11.4947 443.472 10.9168 439.773 10.9168H439.658C437.115 10.9168 435.15 11.1479 433.647 11.6102C432.145 12.0726 430.989 12.8817 430.295 13.9219C429.602 14.9622 429.255 16.3492 429.255 18.0829C429.255 19.8167 429.602 21.2037 430.295 22.244C430.989 23.2843 432.145 24.0933 433.647 24.5557C435.15 25.018 437.231 25.3648 439.773 25.3648Z" fill="#F1F1F1"/>
<path d="M457.799 0.39856H461.382V4.32845H457.799V0.39856ZM457.799 11.1479V8.25827H461.382V25.2492V28.1388H457.799V25.2492V11.1479Z" fill="#F1F1F1"/>
<path d="M465.319 8.25947H468.902V10.4556C470.058 9.64651 471.56 9.06858 473.41 8.49066C475.375 8.02832 477.339 7.79718 479.536 7.79718H479.651C482.425 7.79718 484.506 8.14392 485.893 8.72184C487.28 9.29976 488.32 10.34 488.898 11.727C489.476 13.114 489.707 15.079 489.707 17.7374V28.14H486.124V19.24C486.124 17.1595 486.008 15.6569 485.777 14.6166C485.546 13.5763 484.852 12.6517 483.812 11.9582C482.772 11.2647 481.038 10.918 478.611 10.918H478.495C476.299 10.918 474.45 11.2647 472.716 11.8426C471.098 12.5361 469.711 13.2296 468.786 14.1543V28.14H465.203V8.25947H465.319Z" fill="#F1F1F1"/>
<path d="M500.57 36.2286C498.605 35.8819 497.103 35.304 496.062 34.7261V31.7209C497.218 32.2988 498.721 32.7611 500.57 33.2235C502.419 33.5702 504.5 33.8014 506.812 33.8014H506.927C510.164 33.8014 512.706 33.339 514.671 32.5299C516.636 31.7208 517.561 30.3338 517.561 28.7157V25.1326C515.596 27.3287 512.013 28.4845 506.812 28.4845H506.696C502.188 28.4845 498.836 27.6754 496.756 26.0572C494.56 24.4391 493.52 21.8962 493.52 18.3131C493.52 14.8456 494.56 12.3027 496.64 10.5689C498.721 8.83516 502.073 8.02612 506.696 8.02612H506.812C512.013 8.02612 515.596 9.18192 517.677 11.378V8.48842H521.26V28.1377C521.26 29.6403 521.029 30.9118 520.566 32.1832C520.104 33.339 518.832 34.4949 516.867 35.4195C514.787 36.3442 511.782 36.9222 507.505 36.9222H507.39C504.731 36.8066 502.535 36.5754 500.57 36.2286ZM513.169 24.5547C514.671 24.0923 515.827 23.2832 516.521 22.243C517.214 21.2027 517.561 19.8157 517.561 18.0819C517.561 16.3481 517.214 15.0767 516.521 13.9209C515.827 12.7651 514.671 12.0715 513.169 11.6092C511.666 11.1469 509.586 10.8001 507.043 10.8001H506.927C504.384 10.8001 502.419 11.0313 500.917 11.4937C499.414 11.956 498.374 12.7651 497.681 13.8053C496.987 14.8456 496.64 16.2326 496.64 17.9663C496.64 19.7001 496.987 21.0871 497.681 22.1273C498.374 23.1676 499.414 23.9767 500.917 24.439C502.419 24.9014 504.384 25.1326 506.812 25.1326H506.927C509.586 25.3638 511.551 25.1326 513.169 24.5547Z" fill="#F1F1F1"/>
</svg>
