<svg width="150" height="17" viewBox="0 0 150 17" fill="none" xmlns="http://www.w3.org/2000/svg">
<path d="M141.649 0L134.926 12.4197C134.042 14.0526 132.606 15.6274 130.872 15.7946V16.1763H138.349C140.334 16.1763 141.782 14.5264 142.762 12.7092L149.666 0H141.65H141.649Z" fill="#646464"/>
<path d="M17.8434 16.1763V1.36437H21.2279V16.1763H17.8434ZM95.9023 16.1763L87.7696 7.38091V16.1763H84.9116V1.36437H87.3395L95.3638 10.0215V1.36437H98.2218V16.1763H95.9023ZM113.589 6.14274C112.059 5.18105 110.336 4.40269 108.053 4.40269C105.325 4.40269 103.292 6.20385 103.292 8.70823C103.292 11.2737 105.362 13.0919 108.028 13.0919C110.23 13.0919 111.974 12.3736 113.696 11.1054V14.7708C112.177 15.7325 110.157 16.4498 107.885 16.4498C103.245 16.4498 99.5959 13.4275 99.5959 8.70823C99.5959 4.0661 103.316 1.08789 107.872 1.08789C110.025 1.08789 111.974 1.6068 113.589 2.44827V6.14274ZM40.0638 16.1763V1.36437H51.3771V4.53993H43.4483V8.22037H51.1987V11.3969H43.4483V16.1773H40.0638V16.1763ZM115.635 16.1763V1.36437H127.379V4.53993H119.019V7.10642H127.247V10.282H119.019V13.0007H127.343V16.1763H115.635ZM63.1333 10.6176L67.809 16.1773H64.1975C63.3961 16.1773 62.8704 15.8567 62.4514 15.3358L59.27 11.3959C59.233 11.354 59.1897 11.3217 59.1427 11.3009C59.0956 11.2801 59.0458 11.2712 58.996 11.2747H56.831V16.1763H53.4465V1.36437H60.7779C64.5806 1.36437 66.1833 3.5482 66.1833 5.96042C66.1833 8.77034 64.2214 10.1117 63.1333 10.6176ZM60.4314 8.17429C61.7696 8.17429 62.4156 7.30477 62.4156 6.32706C62.4156 5.34935 61.8421 4.53993 60.4314 4.53993H56.831V8.17429H60.4314ZM34.0833 10.6186L38.759 16.1763H35.1483C34.347 16.1763 33.8205 15.8557 33.4023 15.3358L30.2209 11.3959C30.1837 11.3539 30.1403 11.3216 30.0931 11.3008C30.0459 11.28 29.996 11.2711 29.9461 11.2747H27.7819V16.1763H24.3966V1.36437H31.7279C35.5306 1.36437 37.1341 3.5482 37.1341 5.96042C37.1341 8.77034 35.1722 10.1127 34.0833 10.6186ZM31.3814 8.17429C32.7212 8.17429 33.3672 7.30477 33.3672 6.32706C33.3672 5.34935 32.7929 4.53993 31.3814 4.53993H27.7819V8.17429H31.3814ZM12.5448 16.1763L11.0624 12.9236H4.58092L3.22919 16.1763H0L6.45838 1.3794H9.40081L16.7203 16.1763H12.5448ZM5.87212 9.83821H9.65172L7.68984 5.3183L5.87212 9.83821ZM80.1275 16.1763L78.6802 12.9236H72.3676L71.0637 16.1763H67.9173L74.2076 1.3794H77.0656L84.182 16.1763H80.1275ZM73.6341 9.83821H77.3173L75.404 5.3183L73.6341 9.83821Z" fill="#646464"/>
</svg>
