<svg width="63" height="37" viewBox="0 0 63 37" fill="none" xmlns="http://www.w3.org/2000/svg">
<path fill-rule="evenodd" clip-rule="evenodd" d="M62.0441 18.1468C62.0441 8.16051 53.9484 0.0648018 43.9625 0.0648018C39.6291 0.0648018 35.686 1.58134 32.572 4.12326C34.9474 6.41666 36.7608 9.2881 37.7337 12.5339H36.2314C35.2898 9.6482 33.636 7.1021 31.4861 5.05897C29.3219 7.11996 27.7022 9.68516 26.7718 12.5252H25.2691C26.2286 9.33891 27.9871 6.45093 30.3773 4.13577C27.2709 1.61992 23.3466 0.0644531 19.0375 0.0644531C9.05163 0.0644531 0.955566 8.16017 0.955566 18.1464C0.955566 28.1323 9.05128 36.228 19.0375 36.228C23.3463 36.228 27.2709 34.6726 30.3773 32.1567C28.0203 29.8703 26.2379 26.995 25.2691 23.7676H26.7718C27.7022 26.6076 29.322 29.1728 31.4861 31.2339C33.6363 29.1904 35.2898 26.6446 36.2314 23.7586H37.7337C36.7608 27.0044 34.9474 29.8762 32.572 32.1692C35.686 34.7108 39.6291 36.2277 43.9625 36.2277C53.9484 36.228 62.0441 28.1323 62.0441 18.1468Z" fill="#646464"/>
<path fill-rule="evenodd" clip-rule="evenodd" d="M48.7551 22.3821L50.0036 15.6917H51.582L51.7471 16.3511C52.03 16.0209 52.5719 15.6917 53.4906 15.6917L52.9963 17.4345C52.5483 17.4345 51.7002 17.3174 51.1586 19.3195L50.5931 22.3821H48.7551ZM24.5611 13.9913H26.3804L26.007 15.764H26.9862L26.6602 17.21H25.7272L25.2139 19.9153C25.1203 20.4287 25.1673 20.8955 26.217 20.7321L26.1002 22.0846C25.7036 22.3411 25.1673 22.4117 24.747 22.4117C24.3275 22.4117 22.951 22.1545 23.3014 20.3355L24.5611 13.9913ZM32.4448 19.4026C32.6547 18.3292 33.1448 15.6709 29.9494 15.6709C27.0102 15.6709 26.6372 18.5861 26.5674 19.0057C26.4975 19.4259 26.4509 22.3877 29.5994 22.3877C30.3693 22.4113 31.4889 22.3178 31.9324 22.0843L32.2122 20.7088C31.9324 20.778 30.8823 20.8719 30.159 20.8719C29.4364 20.8719 28.2702 20.9188 28.4798 19.4026H32.4448ZM22.8356 17.2569L23.2552 15.9038C22.3921 15.5774 21.7161 15.6476 21.4592 15.6476C21.2023 15.6476 19.0184 15.6208 18.6837 17.2336C18.4272 18.47 18.8797 18.9813 19.3135 19.1694C20.0136 19.4728 20.4102 19.7526 20.7835 19.9393C21.2451 20.1701 21.1603 20.9421 20.5499 20.9421C20.2697 20.9421 19.0573 21.0818 18.1477 20.7784L17.8912 22.1545C18.731 22.388 19.4067 22.3881 20.0372 22.3881C20.48 22.3881 22.6493 22.5048 22.9521 20.4986C23.1002 19.5204 22.6723 19.0755 22.3223 18.8666C21.9726 18.633 21.3893 18.3066 21.0164 18.1429C20.643 17.9799 20.3632 17.3504 21.0396 17.1638C21.4592 17.1169 22.3219 17.1169 22.8356 17.2569ZM11.0336 22.3877L12.5494 14.3177H9.56432L7.34809 19.2159L6.99806 14.3177H4.08283L2.52007 22.3877H4.339L5.45859 16.5569L5.94869 22.3877H7.67448L10.2171 16.697L9.14408 22.3877H11.0336ZM13.0388 15.8808L12.759 17.3268C13.2025 17.2806 14.392 17.0939 15.0215 17.1169C15.6517 17.1401 16.351 17.047 16.1411 18.0498C15.6746 18.0967 12.4093 17.5833 11.8966 20.3818C11.6867 21.7586 12.8758 22.4579 13.8087 22.4117C14.7417 22.3648 14.9982 22.248 15.3249 22.0144L15.5582 22.3877H17.2603L17.9836 18.7495C18.1703 17.8398 18.473 15.6472 15.4181 15.6472C14.8585 15.6709 14.229 15.6472 13.0388 15.8808ZM42.5207 16.1836C42.0535 15.9034 41.7278 15.8572 41.1209 15.8572C40.5147 15.8572 39.1616 16.4366 38.9058 18.0731C38.6023 20.0088 39.9315 20.9647 41.7977 20.3355L42.334 21.9682C41.7278 22.248 41.1209 22.3877 40.1181 22.3877C38.2287 22.3877 36.1765 20.7088 37.1094 17.3032C37.7973 14.7939 39.9555 13.8749 41.2148 13.9215C42.707 13.9771 43.244 14.4811 43.7105 14.9945L42.5207 16.1836ZM58.0312 16.4634C57.6808 16.2072 57.4719 15.6709 56.6082 15.6709C55.6054 15.6709 54.0426 15.4842 53.1566 18.5162C52.5639 20.5427 53.7628 22.3881 55.0683 22.3881C55.6752 22.3651 56.2814 22.1082 56.654 21.8517L56.8883 22.3881H58.847L60.4334 13.8985H58.5202L58.0312 16.4634ZM43.8269 15.8808L43.5464 17.3268C43.9903 17.2806 45.1791 17.0939 45.8092 17.1169C46.4391 17.1401 47.1391 17.047 46.9288 18.0498C46.4624 18.0967 43.1971 17.5833 42.6844 20.3818C42.4741 21.7586 43.6632 22.4579 44.5961 22.4117C45.5298 22.3648 45.7856 22.248 46.1127 22.0144L46.3463 22.3877H48.0481L48.7717 18.7495C48.9584 17.8398 49.2611 15.6472 46.2055 15.6472C45.6462 15.6709 45.0164 15.6472 43.8269 15.8808Z" fill="#101010"/>
<path fill-rule="evenodd" clip-rule="evenodd" d="M28.5962 18.1899H30.8587C30.9755 17.5367 30.7656 16.9768 30.0426 16.9768C29.3192 16.9768 28.8062 17.3501 28.5962 18.1899ZM15.8383 19.4026C15.5349 19.355 14.8585 19.169 14.2752 19.5656C13.6919 19.9622 13.5289 20.6612 14.1355 20.8955C14.7191 21.1197 15.5808 20.7325 15.6982 20.1249L15.8383 19.4026ZM57.3781 19.1923C57.5647 18.5861 57.4629 17.8291 57.2613 17.5604C56.702 16.8141 55.4149 17.404 55.0224 18.8666C54.7659 19.8225 55.3259 20.5455 55.9554 20.5455C56.6321 20.5451 57.0517 20.0088 57.3781 19.1923ZM46.6261 19.4026C46.3226 19.355 45.6466 19.169 45.0633 19.5656C44.4801 19.9622 44.3167 20.6612 44.9236 20.8955C45.5075 21.1197 46.3689 20.7325 46.4856 20.1249L46.6261 19.4026Z" fill="#646464"/>
<path fill-rule="evenodd" clip-rule="evenodd" d="M32.4969 22.3877L33.7333 15.764H35.296L35.4591 16.4172C35.7396 16.0904 36.2759 15.764 37.1848 15.764L36.7184 17.5135C36.2759 17.5135 35.4121 17.3737 34.8758 19.3553L34.3165 22.3881L32.4969 22.3877Z" fill="#101010"/>
</svg>
