<svg width="67" height="67" viewBox="0 0 67 67" fill="none" xmlns="http://www.w3.org/2000/svg">
<path fill-rule="evenodd" clip-rule="evenodd" d="M64.0441 29.1465C64.0441 19.1603 55.9484 11.0646 45.9625 11.0646C41.6291 11.0646 37.686 12.5811 34.572 15.123C36.9474 17.4164 38.7608 20.2879 39.7337 23.5336H38.2314C37.2898 20.648 35.636 18.1019 33.4861 16.0587C31.3219 18.1197 29.7022 20.6849 28.7718 23.525H27.2691C28.2286 20.3387 29.9871 17.4507 32.3773 15.1355C29.2709 12.6197 25.3466 11.0642 21.0375 11.0642C11.0516 11.0642 2.95557 19.1599 2.95557 29.1462C2.95557 39.1321 11.0513 47.2278 21.0375 47.2278C25.3463 47.2278 29.2709 45.6723 32.3773 43.1565C30.0203 40.87 28.2379 37.9948 27.2691 34.7674H28.7718C29.7022 37.6074 31.322 40.1726 33.4861 42.2336C35.6363 40.1901 37.2898 37.6444 38.2314 34.7584H39.7337C38.7608 38.0042 36.9474 40.8759 34.572 43.169C37.686 45.7106 41.6291 47.2275 45.9625 47.2275C55.9484 47.2278 64.0441 39.1321 64.0441 29.1465Z" fill="#646464"/>
<path fill-rule="evenodd" clip-rule="evenodd" d="M50.755 33.3818L52.0036 26.6914H53.582L53.7471 27.3508C54.03 27.0206 54.5719 26.6914 55.4906 26.6914L54.9963 28.4342C54.5483 28.4342 53.7001 28.3171 53.1586 30.3192L52.5931 33.3818H50.755ZM26.561 24.991H28.3803L28.007 26.7637H28.9862L28.6601 28.2097H27.7272L27.2138 30.915C27.1203 31.4284 27.1672 31.8952 28.2169 31.7318L28.1002 33.0843C27.7036 33.3408 27.1672 33.4114 26.747 33.4114C26.3274 33.4114 24.951 33.1541 25.3014 31.3352L26.561 24.991ZM34.4447 30.4023C34.6547 29.3289 35.1448 26.6706 31.9494 26.6706C29.0101 26.6706 28.6372 29.5858 28.5673 30.0053C28.4974 30.4256 28.4509 33.3874 31.5993 33.3874C32.3693 33.411 33.4888 33.3175 33.9324 33.0839L34.2122 31.7085C33.9324 31.7777 32.8823 31.8715 32.159 31.8715C31.4363 31.8715 30.2702 31.9185 30.4798 30.4023H34.4447ZM24.8356 28.2566L25.2551 26.9034C24.3921 26.5771 23.716 26.6473 23.4591 26.6473C23.2023 26.6473 21.0184 26.6205 20.6836 28.2333C20.4271 29.4697 20.8797 29.981 21.3135 30.169C22.0135 30.4725 22.4101 30.7523 22.7834 30.939C23.245 31.1698 23.1602 31.9418 22.5498 31.9418C22.2697 31.9418 21.0573 32.0815 20.1477 31.778L19.8911 33.1541C20.7309 33.3877 21.4066 33.3877 22.0371 33.3877C22.48 33.3877 24.6493 33.5045 24.952 31.4982C25.1001 30.5201 24.6722 30.0752 24.3222 29.8663C23.9725 29.6327 23.3893 29.3063 23.0163 29.1426C22.643 28.9796 22.3632 28.3501 23.0396 28.1635C23.4591 28.1165 24.3219 28.1165 24.8356 28.2566ZM13.0335 33.3874L14.5494 25.3174H11.5643L9.34804 30.2156L8.99802 25.3174H6.08278L4.52002 33.3874H6.33896L7.45854 27.5566L7.94864 33.3874H9.67443L12.217 27.6966L11.144 33.3874H13.0335ZM15.0388 26.8805L14.759 28.3265C15.2025 28.2802 16.3919 28.0936 17.0214 28.1165C17.6516 28.1398 18.351 28.0467 18.141 29.0495C17.6746 29.0964 14.4093 28.583 13.8966 31.3814C13.6867 32.7582 14.8758 33.4576 15.8087 33.4114C16.7416 33.3644 16.9981 33.2476 17.3249 33.0141L17.5581 33.3874H19.2603L19.9836 29.7492C20.1702 28.8395 20.473 26.6469 17.418 26.6469C16.8584 26.6706 16.2289 26.6469 15.0388 26.8805ZM44.5206 27.1832C44.0535 26.9031 43.7278 26.8569 43.1209 26.8569C42.5147 26.8569 41.1615 27.4363 40.9057 29.0727C40.6023 31.0085 41.9314 31.9643 43.7977 31.3352L44.334 32.9678C43.7278 33.2476 43.1209 33.3874 42.1181 33.3874C40.2286 33.3874 38.1764 31.7085 39.1094 28.3028C39.7972 25.7936 41.9554 24.8746 43.2147 24.9211C44.7069 24.9767 45.244 25.4808 45.7104 25.9941L44.5206 27.1832ZM60.0311 27.4631C59.6808 27.2069 59.4719 26.6706 58.6081 26.6706C57.6053 26.6706 56.0425 26.4839 55.1565 29.5159C54.5639 31.5424 55.7627 33.3877 57.0683 33.3877C57.6752 33.3648 58.2814 33.1079 58.654 32.8514L58.8883 33.3877H60.8469L62.4333 24.8982H60.5202L60.0311 27.4631ZM45.8269 26.8805L45.5464 28.3265C45.9902 28.2802 47.179 28.0936 47.8092 28.1165C48.439 28.1398 49.1391 28.0467 48.9288 29.0495C48.4623 29.0964 45.197 28.583 44.6844 31.3814C44.4741 32.7582 45.6632 33.4576 46.5961 33.4114C47.5297 33.3644 47.7855 33.2476 48.1126 33.0141L48.3462 33.3874H50.048L50.7717 29.7492C50.9583 28.8395 51.2611 26.6469 48.2054 26.6469C47.6462 26.6706 47.0163 26.6469 45.8269 26.8805Z" fill="#101010"/>
<path fill-rule="evenodd" clip-rule="evenodd" d="M30.5962 29.1896H32.8586C32.9754 28.5365 32.7655 27.9766 32.0425 27.9766C31.3192 27.9766 30.8061 28.3499 30.5962 29.1896ZM17.8382 30.4024C17.5348 30.3548 16.8584 30.1688 16.2751 30.5654C15.6919 30.962 15.5289 31.661 16.1354 31.8953C16.719 32.1195 17.5807 31.7323 17.6982 31.1247L17.8382 30.4024ZM59.378 30.1921C59.5646 29.5859 59.4628 28.8289 59.2612 28.5602C58.7019 27.8139 57.4148 28.4037 57.0224 29.8664C56.7658 30.8223 57.3258 31.5453 57.9553 31.5453C58.6321 31.5449 59.0516 31.0086 59.378 30.1921ZM48.626 30.4024C48.3226 30.3548 47.6465 30.1688 47.0632 30.5654C46.48 30.962 46.3166 31.661 46.9235 31.8953C47.5074 32.1195 48.3688 31.7323 48.4856 31.1247L48.626 30.4024Z" fill="#646464"/>
<path fill-rule="evenodd" clip-rule="evenodd" d="M34.4971 33.3873L35.7334 26.7637H37.2962L37.4592 27.4168C37.7397 27.0901 38.2761 26.7637 39.185 26.7637L38.7185 28.5131C38.2761 28.5131 37.4123 28.3734 36.876 30.355L36.3167 33.3877L34.4971 33.3873Z" fill="#101010"/>
</svg>
