<svg width="59" height="45" viewBox="0 0 59 45" fill="none" xmlns="http://www.w3.org/2000/svg">
<path d="M32.2855 5.30938C30.4816 6.73749 28.7522 8.62812 27.7482 10.6968C25.6847 14.9486 26.8284 18.8565 27.7129 21.3928C28.9172 24.8463 31.3562 26.5901 34.263 27.8635C38.4074 29.6794 43.6171 29.8015 48.3476 28.5878C50.0151 28.1601 52.6042 27.2705 53.1691 26.4405C53.7809 25.542 53.877 23.8044 52.5627 23.041C51.281 22.2966 51.1565 22.8652 47.3386 23.7074C44.6814 24.2935 41.7799 24.3953 38.295 22.9007C36.0972 21.9582 34.6099 20.5117 34.1019 18.5346C32.6445 12.8636 35.793 10.7603 36.4072 10.3757L32.2855 5.30938Z" fill="#646464"/>
<path d="M36.4113 11.8127C34.7733 11.5899 29.9686 11.0672 24.9418 10.1515C17.1629 8.73459 8.01775 6.76948 5.09784 6.55969C-0.52127 6.15608 -1.45823 13.6504 3.02749 14.9323C5.56797 15.6583 12.5588 14.8957 14.2582 18.3401C14.7758 19.3891 16.145 23.3449 17.6961 28.2434C18.3041 30.164 23.2494 29.8619 22.3299 25.7704C21.8049 23.4337 20.6093 17.1226 20.6093 17.1226C20.6093 17.1226 34.794 18.6669 35.9484 18.7694L36.4113 11.8127Z" fill="#646464"/>
<path d="M44.103 7.83038C45.9282 7.87869 49.1042 8.34572 50.5346 9.29908L58.5108 10.8651C58.5864 6.45458 56.1585 4.08123 53.4379 2.71302C51.3729 1.67461 48.4759 0.828925 44.1282 1.01379C39.971 1.19054 35.6 2.09785 32.1138 4.86556L36.2805 10.0134C38.2464 8.77935 40.7171 7.74081 44.103 7.83038Z" fill="#646464"/>
<path d="M50.2028 9.63048C50.2028 9.63048 50.6335 9.88715 50.8207 10.0462C51.7117 10.8032 52.0067 11.7077 49.3037 12.1237L51.4418 18.2727C56.3062 17.0603 58.4527 14.3906 58.5125 11.1311L50.2028 9.63048Z" fill="#646464"/>
<path d="M49.6351 12.2932C47.2544 12.6847 42.639 12.9379 36.2753 12.0997L35.7973 19.0552C46.1313 19.9439 49.7654 19.3378 51.7594 18.8067L49.6351 12.2932Z" fill="#646464"/>
<path d="M0.0302734 36.8626C0.0302734 36.9839 0.125279 37.0773 0.23926 37.0773H2.13925V42.176L3.39157 42.1805V37.0771H5.29169C5.40554 37.0771 5.50054 36.9838 5.50054 36.8626V36.075C5.50054 35.9538 5.40554 35.8605 5.29156 35.8605H0.23926C0.125147 35.8605 0.0302734 35.9538 0.0302734 36.0752V36.8626Z" fill="#646464"/>
<path d="M4.48574 39.8502C4.48574 41.1933 5.60671 42.238 6.99371 42.238C8.39027 42.238 9.51124 41.1933 9.51124 39.8502C9.51124 38.4978 8.39027 37.4345 6.99371 37.4345C5.60671 37.4345 4.48574 38.4978 4.48574 39.8502ZM5.87275 39.8408C5.87275 39.2066 6.3572 38.6843 6.99371 38.6843C7.63978 38.6843 8.12423 39.2066 8.12423 39.8408C8.12423 40.4751 7.63978 40.9881 6.99371 40.9881C6.3572 40.9881 5.87275 40.4751 5.87275 39.8408ZM10.3303 40.8255C10.3303 41.8608 11.1188 42.2805 11.9168 42.2805C12.4583 42.2805 13.0127 42.2052 13.3663 41.9341C13.9429 41.492 13.4597 40.5937 12.6728 41.0387C12.4394 41.1707 12.0556 41.1035 11.9852 41.0747C11.8268 41.0101 11.5513 40.9557 11.5673 40.5083V38.5524H12.7284C13.6189 38.5524 13.6076 37.4239 12.7284 37.4239H11.5674V35.879L10.3303 35.8746V37.4238H9.72235V38.5523H10.3303V40.8255ZM13.8353 39.8315C13.8353 41.2959 14.9469 42.238 16.1439 42.238C16.7614 42.238 17.4053 41.9766 17.6238 41.6224V42.2441L18.7717 42.2397V38.0257C18.7717 37.2009 17.6474 37.2411 17.6474 37.9803C17.4288 37.6257 16.7708 37.4345 16.1533 37.4345C14.9564 37.4345 13.8353 38.3578 13.8353 39.8315ZM15.2223 39.8408C15.2223 39.2066 15.7069 38.6843 16.3529 38.6843C16.9989 38.6843 17.4834 39.2066 17.4834 39.8408C17.4834 40.4751 16.9989 40.9975 16.3529 40.9975C15.7069 40.9975 15.2223 40.4751 15.2223 39.8408ZM21.1483 42.1806V36.4185C21.1483 35.6878 19.8506 35.7114 19.8506 36.4185V42.1802L21.1483 42.1806ZM22.2717 35.79C22.1483 35.79 22.0628 35.8833 22.0628 35.9953V41.9633C22.0628 42.0846 22.1482 42.178 22.2717 42.178H26.473L26.4775 40.8908H23.4877V39.6702H25.8318C25.9552 39.6702 26.0408 39.5675 26.0408 39.4555V38.6348C26.0408 38.5135 25.9552 38.4202 25.8318 38.4202H23.4877V37.0771H26.1888C26.3122 37.0771 26.4072 36.9838 26.4072 36.8626V36.0045C26.4072 35.8832 26.3122 35.79 26.1888 35.79H22.2717ZM30.7086 41.9913C30.7086 42.1033 30.8131 42.178 30.9176 42.178H31.7366C31.8412 42.178 31.9456 42.1033 31.9456 41.9913V39.4731C31.9456 38.3631 31.3086 37.3601 30.0831 37.3601C29.3611 37.3601 28.6645 37.5731 28.389 37.8997C28.389 37.2307 27.3019 37.2017 27.3019 37.8407V42.1836L28.5293 42.1881V39.6251C28.5293 38.0442 30.7086 38.2965 30.7086 39.6251V41.9913ZM40.7404 37.3207C40.0644 37.3207 39.5113 37.7235 39.2548 38.1247V37.8221C39.2548 37.259 38.2248 37.1994 38.2248 37.8421V42.1646L39.4353 42.1804V39.9767C39.4353 39.3132 39.8785 38.5812 40.3548 38.5034L40.8457 38.4234C41.6275 38.4234 41.502 37.3207 40.7404 37.3207ZM43.9801 43.0605C43.3531 43.0605 42.7543 43.0252 42.4329 42.8458C41.6633 42.4164 41.2083 43.3597 41.6881 43.6381C42.3363 44.0141 42.6597 44.1993 43.8756 44.1993C45.4335 44.1993 46.2786 43.3333 46.2786 42.0646V37.8407C46.2786 37.2838 45.2009 37.2194 45.2009 37.7702V38.0594C44.973 37.705 44.3196 37.505 43.6925 37.505C42.4957 37.505 41.4125 38.4191 41.4125 39.8648C41.4125 41.3105 42.486 42.2058 43.7496 42.2058C44.3576 42.2058 44.8516 41.9448 45.0606 41.6276V42.0182C45.0606 42.6244 44.7116 43.0605 43.9801 43.0605ZM42.7995 39.8648C42.7995 39.2306 43.2841 38.7362 43.9206 38.7362C44.5666 38.7362 45.0511 39.2306 45.0511 39.8648C45.0511 40.5083 44.5666 40.9933 43.9206 40.9933C43.2841 40.9933 42.7995 40.5083 42.7995 39.8648Z" fill="#646464"/>
<path d="M47.9224 36.8675C48.3271 36.8675 48.6628 36.5205 48.6628 36.1129C48.6628 35.6965 48.3271 35.3494 47.9224 35.3494C47.5092 35.3494 47.1733 35.6965 47.1733 36.1129C47.1733 36.5205 47.509 36.8675 47.9224 36.8675ZM48.353 42.1778C48.4562 42.1778 48.5337 42.0912 48.5337 41.9872V38.0739C48.5337 37.2479 47.294 37.2482 47.294 38.0739V41.9872C47.294 42.0912 47.3801 42.1778 47.4833 42.1778H48.353Z" fill="#646464"/>
<path d="M51.7573 37.3543C50.3042 37.3543 49.258 38.4743 49.258 39.8648C49.258 41.2552 50.2849 42.327 51.7767 42.327C52.8131 42.327 53.4267 42.0194 53.8143 41.5173C54.0505 41.106 53.495 40.6036 52.9994 40.8912C52.5605 41.1899 52.261 41.1491 51.8057 41.1491C51.2536 41.1491 50.7692 40.7724 50.7014 40.1835H53.7965C53.9902 40.1835 54.0387 40.0772 54.0387 39.9614V39.7007C54.0387 38.4936 53.2491 37.3543 51.7573 37.3543ZM52.8034 39.3143H50.7304C50.866 38.793 51.2924 38.4743 51.767 38.4743C52.2223 38.4743 52.6775 38.7447 52.8034 39.3143Z" fill="#646464"/>
<path d="M56.5631 37.3179C55.2909 37.3179 54.5019 37.9962 54.5019 38.8587C54.5019 39.6243 55.0247 40.0991 55.8036 40.2541L56.5927 40.4188C57.0463 40.506 57.283 40.6029 57.283 40.8355C57.283 41.0391 57.066 41.2328 56.6222 41.2328C56.1489 41.2328 55.6579 41.1444 55.3522 40.8828C54.6744 40.5292 54.0724 41.2759 54.7485 41.7852C55.1429 42.0565 55.7642 42.3085 56.5729 42.3085C57.8846 42.3085 58.7426 41.6205 58.7426 40.7096C58.7426 39.8278 58.0719 39.4402 57.2534 39.2851L56.494 39.1398C56.0897 39.0622 55.9417 38.9362 55.9417 38.752C55.9417 38.5583 56.1883 38.4033 56.5631 38.4033C56.9674 38.4033 57.3087 38.4448 57.6046 38.6386C58.1983 38.9831 58.807 38.2485 58.2547 37.7851C57.9588 37.5234 57.5196 37.3179 56.5631 37.3179Z" fill="#646464"/>
<path d="M35.1864 37.3543C33.7333 37.3543 32.6871 38.4743 32.6871 39.8648C32.6871 41.2552 33.714 42.327 35.2058 42.327C36.2422 42.327 36.8558 42.0194 37.2432 41.5173C37.4796 41.106 36.9241 40.6036 36.4285 40.8912C35.9896 41.1899 35.6901 41.1491 35.2348 41.1491C34.6826 41.1491 34.1983 40.7724 34.1305 40.1835H37.2255C37.4192 40.1835 37.4678 40.0772 37.4678 39.9614V39.7007C37.4678 38.4936 36.6782 37.3543 35.1864 37.3543ZM36.2325 39.3143H34.1595C34.2951 38.793 34.7213 38.4743 35.1961 38.4743C35.6512 38.4743 36.1066 38.7447 36.2325 39.3143Z" fill="#646464"/>
</svg>
