<svg width="97" height="77" viewBox="0 0 97 77" fill="none" xmlns="http://www.w3.org/2000/svg">
<path d="M49.2854 25.3093C47.4815 26.7374 45.752 28.6281 44.7481 30.6968C42.6846 34.9486 43.8283 38.8564 44.7128 41.3928C45.9171 44.8463 48.356 46.5901 51.2629 47.8635C55.4073 49.6793 60.617 49.8015 65.3475 48.5878C67.015 48.16 69.604 47.2704 70.169 46.4405C70.7808 45.542 70.8769 43.8043 69.5626 43.0409C68.2808 42.2966 68.1564 42.8651 64.3385 43.7074C61.6812 44.2935 58.7798 44.3953 55.2949 42.9007C53.097 41.9582 51.6098 40.5117 51.1018 38.5346C49.6444 32.8636 52.7929 30.7603 53.4071 30.3757L49.2854 25.3093Z" fill="#646464"/>
<path d="M53.4115 31.8126C51.7735 31.5898 46.9688 31.0671 41.942 30.1515C34.1631 28.7346 25.0179 26.7694 22.098 26.5597C16.4789 26.1561 15.542 33.6504 20.0277 34.9323C22.5682 35.6583 29.559 34.8957 31.2584 38.34C31.776 39.3891 33.1452 43.3449 34.6963 48.2434C35.3043 50.164 40.2496 49.8619 39.3301 45.7703C38.8051 43.4337 37.6095 37.1226 37.6095 37.1226C37.6095 37.1226 51.7942 38.6669 52.9486 38.7694L53.4115 31.8126Z" fill="#646464"/>
<path d="M61.1029 27.8304C62.9282 27.8787 66.1042 28.3457 67.5346 29.2991L75.5108 30.8651C75.5864 26.4546 73.1585 24.0812 70.4379 22.713C68.3729 21.6746 65.4759 20.8289 61.1282 21.0138C56.971 21.1905 52.6 22.0979 49.1138 24.8656L53.2805 30.0134C55.2464 28.7793 57.7171 27.7408 61.1029 27.8304Z" fill="#646464"/>
<path d="M67.2028 29.6304C67.2028 29.6304 67.6336 29.887 67.8207 30.0461C68.7117 30.8031 69.0067 31.7076 66.3037 32.1236L68.4418 38.2726C73.3062 37.0602 75.4527 34.3905 75.5126 31.131L67.2028 29.6304Z" fill="#646464"/>
<path d="M66.6352 32.2931C64.2545 32.6846 59.639 32.9378 53.2753 32.0996L52.7974 39.0552C63.1313 39.9438 66.7654 39.3377 68.7594 38.8066L66.6352 32.2931Z" fill="#646464"/>
<path d="M17.0303 56.8625C17.0303 56.9838 17.1253 57.0771 17.2393 57.0771H19.1392V62.1758L20.3916 62.1804V57.077H22.2917C22.4055 57.077 22.5005 56.9837 22.5005 56.8625V56.0749C22.5005 55.9537 22.4055 55.8604 22.2916 55.8604H17.2393C17.1251 55.8604 17.0303 55.9537 17.0303 56.075V56.8625Z" fill="#646464"/>
<path d="M21.4858 59.85C21.4858 61.1931 22.6068 62.2378 23.9938 62.2378C25.3904 62.2378 26.5113 61.1931 26.5113 59.85C26.5113 58.4976 25.3904 57.4343 23.9938 57.4343C22.6068 57.4343 21.4858 58.4976 21.4858 59.85ZM22.8728 59.8406C22.8728 59.2064 23.3573 58.6841 23.9938 58.6841C24.6399 58.6841 25.1243 59.2064 25.1243 59.8406C25.1243 60.4749 24.6399 60.988 23.9938 60.988C23.3573 60.988 22.8728 60.4749 22.8728 59.8406ZM27.3304 60.8253C27.3304 61.8606 28.1189 62.2803 28.9169 62.2803C29.4584 62.2803 30.0128 62.205 30.3664 61.9339C30.943 61.4918 30.4598 60.5936 29.6729 61.0385C29.4395 61.1705 29.0557 61.1033 28.9853 61.0745C28.8269 61.0099 28.5514 60.9556 28.5674 60.5081V58.5523H29.7285C30.619 58.5523 30.6077 57.4238 29.7285 57.4238H28.5675V55.8789L27.3304 55.8745V57.4236H26.7224V58.5521H27.3304V60.8253ZM30.8354 59.8313C30.8354 61.2957 31.947 62.2378 33.144 62.2378C33.7615 62.2378 34.4054 61.9765 34.6239 61.6222V62.2439L35.7718 62.2395V58.0255C35.7718 57.2007 34.6475 57.241 34.6475 57.9801C34.4289 57.6255 33.7709 57.4343 33.1534 57.4343C31.9565 57.4343 30.8354 58.3576 30.8354 59.8313ZM32.2224 59.8406C32.2224 59.2064 32.707 58.6841 33.353 58.6841C33.999 58.6841 34.4835 59.2064 34.4835 59.8406C34.4835 60.4749 33.999 60.9973 33.353 60.9973C32.707 60.9973 32.2224 60.4749 32.2224 59.8406ZM38.1484 62.1805V56.4183C38.1484 55.6877 36.8507 55.7113 36.8507 56.4183V62.1801L38.1484 62.1805ZM39.2718 55.7898C39.1484 55.7898 39.0629 55.8831 39.0629 55.9951V61.9631C39.0629 62.0845 39.1483 62.1778 39.2718 62.1778H43.4731L43.4776 60.8906H40.4878V59.67H42.8319C42.9553 59.67 43.0409 59.5673 43.0409 59.4553V58.6347C43.0409 58.5133 42.9553 58.42 42.8319 58.42H40.4878V57.077H43.1888C43.3123 57.077 43.4073 56.9836 43.4073 56.8624V56.0043C43.4073 55.883 43.3123 55.7898 43.1888 55.7898H39.2718ZM47.7087 61.9911C47.7087 62.1031 47.8132 62.1778 47.9176 62.1778H48.7367C48.8413 62.1778 48.9457 62.1031 48.9457 61.9911V59.4729C48.9457 58.3629 48.3087 57.3599 47.0832 57.3599C46.3612 57.3599 45.6646 57.573 45.3891 57.8995C45.3891 57.2306 44.302 57.2015 44.302 57.8406V62.1834L45.5294 62.1879V59.6249C45.5294 58.044 47.7087 58.2963 47.7087 59.6249V61.9911ZM57.7405 57.3206C57.0645 57.3206 56.5114 57.7234 56.2549 58.1245V57.8219C56.2549 57.2588 55.2249 57.1992 55.2249 57.8419V62.1645L56.4354 62.1802V59.9765C56.4354 59.3131 56.8786 58.5811 57.3549 58.5032L57.8458 58.4232C58.6276 58.4232 58.502 57.3206 57.7405 57.3206ZM60.9802 63.0603C60.3532 63.0603 59.7544 63.025 59.433 62.8456C58.6634 62.4162 58.2084 63.3595 58.6882 63.6379C59.3364 64.0139 59.6598 64.1991 60.8757 64.1991C62.4336 64.1991 63.2787 63.3331 63.2787 62.0645V57.8406C63.2787 57.2836 62.201 57.2192 62.201 57.77V58.0592C61.9731 57.7048 61.3197 57.5048 60.6926 57.5048C59.4958 57.5048 58.4126 58.4189 58.4126 59.8646C58.4126 61.3103 59.4861 62.2057 60.7497 62.2057C61.3577 62.2057 61.8517 61.9446 62.0607 61.6274V62.0181C62.0607 62.6242 61.7117 63.0603 60.9802 63.0603ZM59.7996 59.8646C59.7996 59.2304 60.2842 58.736 60.9207 58.736C61.5667 58.736 62.0512 59.2304 62.0512 59.8646C62.0512 60.5081 61.5667 60.9932 60.9207 60.9932C60.2842 60.9932 59.7996 60.5081 59.7996 59.8646Z" fill="#646464"/>
<path d="M64.9224 56.8675C65.3271 56.8675 65.6628 56.5204 65.6628 56.1128C65.6628 55.6964 65.3271 55.3494 64.9224 55.3494C64.5092 55.3494 64.1733 55.6964 64.1733 56.1128C64.1733 56.5204 64.509 56.8675 64.9224 56.8675ZM65.353 62.1778C65.4562 62.1778 65.5337 62.0911 65.5337 61.9871V58.0738C65.5337 57.2479 64.294 57.2481 64.294 58.0738V61.9871C64.294 62.0911 64.3801 62.1778 64.4833 62.1778H65.353Z" fill="#646464"/>
<path d="M68.7572 57.3542C67.3041 57.3542 66.2578 58.4742 66.2578 59.8647C66.2578 61.2551 67.2847 62.3269 68.7765 62.3269C69.813 62.3269 70.4265 62.0193 70.8141 61.5172C71.0503 61.1059 70.4949 60.6035 69.9993 60.8911C69.5603 61.1898 69.2608 61.149 68.8056 61.149C68.2535 61.149 67.769 60.7723 67.7012 60.1834H70.7963C70.9901 60.1834 71.0385 60.0771 71.0385 59.9613V59.7006C71.0385 58.4936 70.249 57.3542 68.7572 57.3542ZM69.8033 59.3142H67.7303C67.8659 58.7929 68.2922 58.4742 68.7668 58.4742C69.2221 58.4742 69.6774 58.7446 69.8033 59.3142Z" fill="#646464"/>
<path d="M73.5629 57.3179C72.2907 57.3179 71.5017 57.9961 71.5017 58.8586C71.5017 59.6242 72.0245 60.099 72.8034 60.2541L73.5925 60.4187C74.046 60.5059 74.2827 60.6029 74.2827 60.8354C74.2827 61.039 74.0658 61.2327 73.6219 61.2327C73.1486 61.2327 72.6577 61.1443 72.352 60.8827C71.6742 60.5291 71.0722 61.2758 71.7482 61.7851C72.1427 62.0564 72.764 62.3084 73.5727 62.3084C74.8844 62.3084 75.7423 61.6204 75.7423 60.7095C75.7423 59.8277 75.0717 59.4401 74.2531 59.285L73.4938 59.1397C73.0895 59.0621 72.9415 58.9361 72.9415 58.752C72.9415 58.5582 73.188 58.4032 73.5629 58.4032C73.9672 58.4032 74.3085 58.4448 74.6044 58.6385C75.198 58.983 75.8068 58.2484 75.2544 57.7851C74.9585 57.5233 74.5193 57.3179 73.5629 57.3179Z" fill="#646464"/>
<path d="M52.1864 57.3542C50.7333 57.3542 49.687 58.4742 49.687 59.8647C49.687 61.2551 50.7139 62.3269 52.2057 62.3269C53.2422 62.3269 53.8557 62.0193 54.2432 61.5172C54.4795 61.1059 53.9241 60.6035 53.4285 60.8911C52.9895 61.1898 52.69 61.149 52.2348 61.149C51.6825 61.149 51.1982 60.7723 51.1304 60.1834H54.2254C54.4191 60.1834 54.4677 60.0771 54.4677 59.9613V59.7006C54.4677 58.4936 53.6782 57.3542 52.1864 57.3542ZM53.2325 59.3142H51.1595C51.2951 58.7929 51.7213 58.4742 52.196 58.4742C52.6512 58.4742 53.1066 58.7446 53.2325 59.3142Z" fill="#646464"/>
</svg>
