<svg width="522" height="102" viewBox="0 0 522 102" fill="none" xmlns="http://www.w3.org/2000/svg">
<path d="M28.6602 35.0271H1.1543V4.6748H27.2227C31.0778 4.6748 33.886 5.33811 35.479 6.5063C37.0486 7.65735 37.8097 9.66485 37.8097 12.2761C37.8097 13.6953 37.59 14.856 37.0736 15.6822C36.541 16.5343 35.6802 17.3987 34.575 18.3934L34.2782 18.6605L34.6481 18.8108C36.383 19.5156 37.6668 20.4841 38.5179 21.7077C39.3685 22.9305 39.8001 24.4265 39.8001 26.2094C39.8001 29.3725 38.9289 31.6046 37.1337 32.9774L37.1337 32.9773L37.1279 32.982C35.4278 34.3634 32.6264 35.0271 28.6602 35.0271ZM29.3456 16.1373L29.3547 16.1317L29.3631 16.1253C30.3358 15.3958 30.6795 14.3075 30.6795 12.9396C30.6795 11.5483 30.2096 10.5721 29.2351 9.96306C28.2869 9.37045 26.8982 9.15097 25.0111 9.15097H8.42384H8.17384V9.40097V16.8099V17.0599H8.42384H24.5687C26.7933 17.0599 28.3999 16.7284 29.3456 16.1373ZM8.42384 21.7573H8.17384V22.0073V29.9692V30.2192H8.42384H27.2161C29.3203 30.3291 30.8504 30.006 31.7053 29.1575C32.5562 28.423 32.8912 27.2286 32.8912 25.767C32.8912 24.2794 32.4306 23.1843 31.4467 22.5694C30.4985 21.9768 29.1099 21.7573 27.2227 21.7573H8.42384Z" stroke="#F1F1F1" stroke-width="0.5"/>
<path d="M71.0917 34.2633C68.4872 33.3951 66.6532 31.99 65.359 30.1583C64.1783 28.3312 63.522 25.7307 63.522 22.6682C63.522 19.6055 64.1785 17.1132 65.3617 15.2845C66.5407 13.4625 68.4789 12.0547 71.0917 11.1838C73.7105 10.3108 77.109 9.86963 81.4073 9.86963H81.5179C85.817 9.86963 89.3257 10.311 91.9441 11.1838C94.552 12.0531 96.3821 13.4588 97.5635 15.2845C98.7438 17.1087 99.2926 19.5981 99.2926 22.5577C99.2926 25.6289 98.7434 28.1178 97.5635 29.9414C96.3826 31.7663 94.5521 33.1737 91.9397 34.1542C89.3177 35.0275 85.8085 35.5774 81.5179 35.5774H81.4073C77.109 35.5774 73.7105 35.1362 71.0917 34.2633ZM81.4073 30.5484C84.1786 30.5484 86.5337 30.3275 88.2318 29.7615C89.9204 29.1986 91.1913 28.3999 92.0068 27.2348C92.8219 26.0704 93.1578 24.5744 93.1578 22.6682C93.1578 20.762 92.8219 19.2661 92.0068 18.1016C91.1977 16.9458 89.9323 16.0296 88.2246 15.5726C86.5276 15.0084 84.2856 14.7881 81.4073 14.7881H81.2967C78.5255 14.7881 76.1703 15.009 74.4722 15.575C72.7837 16.1378 71.5128 16.9366 70.6973 18.1016C69.8815 19.267 69.5463 20.8744 69.5463 22.6682C69.5463 24.5744 69.8821 26.0704 70.6973 27.2348C71.5075 28.3923 72.7754 29.3095 74.4868 29.7658C76.1698 30.2146 78.5141 30.5484 81.4073 30.5484Z" stroke="#F1F1F1" stroke-width="0.5"/>
<path d="M111.192 12.9234C112.596 11.9515 114.444 11.1871 116.86 10.5276C119.275 9.97911 121.798 9.65039 124.54 9.65039H124.651C127.959 9.65039 130.573 9.98226 132.407 10.7374C134.234 11.4898 135.509 12.6631 136.254 14.3662C137.009 16.0915 137.449 18.5963 137.449 21.8961V34.9158H130.983V23.776C130.983 21.7812 130.873 20.2053 130.532 18.9552C130.185 17.6822 129.485 16.6336 128.213 15.8244C126.939 15.0134 125.003 14.5689 122.329 14.5689H122.218C119.755 14.5689 117.511 15.0166 115.599 15.8041C113.695 16.5878 112.117 17.5997 110.983 18.7337L110.91 18.8069V18.9104V34.9158H104.333V10.3139H110.799V12.7178V13.195L111.192 12.9234Z" stroke="#F1F1F1" stroke-width="0.5"/>
<path d="M143.988 30.1716L143.988 30.1715L143.983 30.1625C142.803 28.3395 142.253 25.851 142.253 22.6682C142.253 19.2679 142.912 16.6722 144.198 14.8505C145.486 13.0256 147.424 11.727 150.035 10.9654C152.656 10.201 155.947 9.86963 160.139 9.86963C163.997 9.86963 167.181 10.2006 169.696 10.8568C172.202 11.5106 174.037 12.5952 175.326 13.9913C176.612 15.3841 177.479 17.3238 177.805 19.7163L177.805 19.7179C177.916 20.4916 178.024 21.3607 178.024 22.1153V22.1198V22.1244V22.1289V22.1334V22.1379V22.1424V22.1469V22.1514V22.1559V22.1604V22.1649V22.1694V22.1738V22.1783V22.1828V22.1872V22.1917V22.1961V22.2006V22.205V22.2094V22.2139V22.2183V22.2227V22.2271V22.2315V22.2359V22.2403V22.2447V22.2491V22.2534V22.2578V22.2622V22.2665V22.2709V22.2752V22.2796V22.2839V22.2883V22.2926V22.2969V22.3012V22.3055V22.3098V22.3141V22.3184V22.3227V22.327V22.3313V22.3356V22.3398V22.3441V22.3483V22.3526V22.3568V22.3611V22.3653V22.3695V22.3738V22.378V22.3822V22.3864V22.3906V22.3948V22.399V22.4032V22.4073V22.4115V22.4157V22.4198V22.424V22.4281V22.4323V22.4364V22.4405V22.4447V22.4488V22.4529V22.457V22.4611V22.4652V22.4693V22.4734V22.4775V22.4815V22.4856V22.4897V22.4937V22.4978V22.5018V22.5058V22.5099V22.5139V22.5179V22.5219V22.5259V22.5299V22.5339V22.5379V22.5419V22.5459V22.5499V22.5538V22.5578V22.5617V22.5657V22.5696V22.5736V22.5775V22.5814V22.5853V22.5892V22.5931V22.597V22.6009V22.6048V22.6087V22.6126V22.6164V22.6203V22.6241V22.628V22.6318V22.6357V22.6395V22.6433V22.6471V22.6509V22.6547V22.6585V22.6623V22.6661V22.6699V22.6737V22.6774V22.6812V22.6849V22.6887V22.6924V22.6962V22.6999V22.7036V22.7073V22.711V22.7147V22.7184V22.7221V22.7258V22.7295V22.7331V22.7368V22.7405V22.7441V22.7477V22.7514V22.755V22.7586V22.7622V22.7659V22.7695V22.7731V22.7766V22.7802V22.7838V22.7874V22.7909V22.7945V22.798V22.8016V22.8051V22.8086V22.8122V22.8157V22.8192V22.8227V22.8262V22.8297V22.8332V22.8366V22.8401V22.8436V22.847V22.8505V22.8539V22.8573V22.8608V22.8642V22.8676V22.871V22.8744V22.8778V22.8812V22.8845V22.8879V22.8913V22.8946V22.898V22.9013V22.9047V22.908V22.9113V22.9146V22.9179V22.9212V22.9245V22.9278V22.9311V22.9344V22.9376V22.9409V22.9441V22.9474V22.9506V22.9539V22.9571V22.9603V22.9635V22.9667V22.9699V22.9731V22.9763V22.9794V22.9826V22.9858V22.9889V22.992V22.9952V22.9983V23.0014V23.0045V23.0077V23.0108V23.0138V23.0169V23.02V23.0231V23.0261V23.0292V23.0322V23.0353V23.0383V23.0413V23.0443V23.0474V23.0504V23.0534V23.0563V23.0593V23.0623V23.0653V23.0682V23.0712V23.0741V23.077V23.08V23.0829V23.0858V23.0887V23.0916V23.0945V23.0974V23.1002V23.1031V23.106V23.1088V23.1117V23.1145V23.1173V23.1201V23.123V23.1258V23.1286V23.1314V23.1341V23.1369V23.1397V23.1424V23.1452V23.1479V23.1507V23.1534V23.1561V23.1588V23.1615V23.1642V23.1669V23.1696V23.1723V23.1749V23.1776V23.1802V23.1829V23.1855V23.1881V23.1907V23.1933V23.1959V23.1985V23.2011V23.2037V23.2063V23.2088V23.2114V23.2139V23.2165V23.219V23.2215V23.224V23.2265V23.229V23.2315V23.234V23.2364V23.2389V23.2414V23.2438V23.2462V23.2487V23.2511V23.2535V23.2559V23.2583V23.2607V23.2631V23.2655V23.2678V23.2702V23.2725V23.2749V23.2772V23.2795V23.2818V23.2841V23.2864V23.2887V23.291V23.2933V23.2955V23.2978V23.3V23.3023V23.3029H148.638H148.371L148.389 23.5695C148.503 25.2762 149.073 26.6513 149.879 27.6873C150.698 28.741 151.971 29.4244 153.646 29.9826L153.653 29.985L153.661 29.987C155.348 30.437 157.473 30.6589 160.139 30.6589H160.249C163.467 30.6589 165.938 30.3271 167.641 29.6458C169.295 28.9839 170.537 27.8884 171.244 26.4568H177.734C177.184 28.6074 176.333 30.3381 175.001 31.6697L175.001 31.6695L174.994 31.6769C173.712 33.0664 171.771 34.0445 169.362 34.7016C166.958 35.3571 163.886 35.688 160.139 35.688H160.031C155.618 35.5775 152.11 35.1361 149.491 34.2633C146.882 33.3934 145.057 31.9886 143.988 30.1716ZM148.727 19.5147L148.654 19.822H148.97H171.197H171.531L171.437 19.5014C170.865 17.5582 169.714 16.1713 167.985 15.3645C166.277 14.5675 163.58 14.1246 160.139 14.1246H160.028C156.589 14.1246 153.893 14.567 152.185 15.3632C150.345 16.169 149.187 17.5592 148.727 19.5147Z" stroke="#F1F1F1" stroke-width="0.5"/>
<path d="M208.654 34.2633C206.047 33.3942 204.22 31.9899 203.039 30.0574C201.851 28.1144 201.195 25.6186 201.195 22.5577C201.195 19.4885 201.744 17.1093 202.925 15.2845C204.106 13.4588 205.936 12.0531 208.544 11.1838C211.162 10.311 214.671 9.86963 218.97 9.86963H219.081C224.593 9.86963 228.638 10.6424 231.35 12.0531C233.955 13.4077 235.556 15.5657 236.345 18.6585H229.959C229.247 17.3324 228.001 16.3474 226.348 15.7962C224.654 15.2315 222.191 14.8987 219.191 14.8987H219.081C216.309 14.8987 213.954 15.1196 212.256 15.6856C210.568 16.2485 209.297 17.0472 208.481 18.2122C207.666 19.3767 207.33 20.8726 207.33 22.7788C207.33 24.685 207.666 26.181 208.481 27.3455C209.29 28.5013 210.556 29.4173 212.263 29.8744C213.96 30.4386 216.202 30.6589 219.081 30.6589H219.191C222.191 30.6589 224.654 30.3261 226.348 29.7614C228.001 29.2103 229.247 28.2253 229.959 26.8992H236.352C235.657 29.8888 233.957 32.1493 231.35 33.5045C228.637 34.9153 224.592 35.688 219.191 35.688H219.084C214.672 35.5775 211.273 35.1362 208.654 34.2633Z" stroke="#F1F1F1" stroke-width="0.5"/>
<path d="M247.91 34.2643L247.907 34.2633C245.302 33.3951 243.468 31.99 242.174 30.1583C240.993 28.3312 240.337 25.7307 240.337 22.6682C240.337 19.6055 240.993 17.1132 242.177 15.2845C243.356 13.4625 245.294 12.0547 247.907 11.1838C250.525 10.3108 253.924 9.86963 258.222 9.86963H258.333C262.632 9.86963 266.141 10.311 268.759 11.1838C271.367 12.0531 273.197 13.4588 274.378 15.2845C275.559 17.1087 276.108 19.5981 276.108 22.5577C276.108 25.6289 275.558 28.1178 274.378 29.9414C273.198 31.7663 271.367 33.1737 268.755 34.1542C266.133 35.0275 262.623 35.5774 258.333 35.5774H258.222C253.922 35.5774 250.415 35.1358 247.91 34.2643ZM258.222 30.5484C260.993 30.5484 263.349 30.3275 265.047 29.7615C266.735 29.1986 268.006 28.3999 268.822 27.2348C269.637 26.0704 269.973 24.5744 269.973 22.6682C269.973 20.762 269.637 19.2661 268.822 18.1016C268.013 16.9458 266.747 16.0296 265.04 15.5726C263.343 15.0084 261.101 14.7881 258.222 14.7881H258.112C255.34 14.7881 252.985 15.009 251.287 15.575C249.599 16.1378 248.328 16.9366 247.512 18.1016C246.696 19.267 246.361 20.8744 246.361 22.6682C246.361 24.5744 246.697 26.0704 247.512 27.2348C248.322 28.3911 249.588 29.3076 251.297 29.7645C253.101 30.3274 255.341 30.5484 258.222 30.5484Z" stroke="#F1F1F1" stroke-width="0.5"/>
<path d="M288.001 12.9234C289.405 11.9515 291.253 11.1871 293.669 10.5276C296.084 9.97911 298.607 9.65039 301.349 9.65039H301.46C304.768 9.65039 307.382 9.98226 309.216 10.7374C311.043 11.4898 312.318 12.6631 313.063 14.3662C313.818 16.0915 314.259 18.5963 314.259 21.8961V34.9158H307.792V23.776C307.792 21.7812 307.682 20.2053 307.341 18.9552C306.994 17.6822 306.294 16.6336 305.022 15.8244C303.748 15.0134 301.812 14.5689 299.138 14.5689H299.027C296.564 14.5689 294.32 15.0166 292.408 15.8041C290.504 16.5878 288.926 17.5997 287.792 18.7337L287.719 18.8069V18.9104V34.9158H281.142V10.3139H287.608V12.7178V13.195L288.001 12.9234Z" stroke="#F1F1F1" stroke-width="0.5"/>
<path d="M321.301 33.3055L321.301 33.3054L321.295 33.3011C319.667 32.1822 318.803 30.2616 318.752 27.6751H324.007C324.069 28.7344 324.533 29.6128 325.342 30.075C326.17 30.5483 327.658 30.882 329.557 30.882H340.062C340.956 30.882 341.719 30.8263 342.346 30.7121C342.972 30.5985 343.479 30.4242 343.85 30.1766C344.592 29.6822 344.957 28.9355 344.957 27.9781C344.957 26.9309 344.607 26.0742 343.978 25.5712C343.361 25.077 342.408 24.853 341.279 24.853H333.206H333.197H333.187H333.177H333.167H333.158H333.148H333.138H333.129H333.119H333.109H333.1H333.09H333.08H333.071H333.061H333.051H333.041H333.032H333.022H333.012H333.003H332.993H332.983H332.974H332.964H332.955H332.945H332.935H332.926H332.916H332.906H332.897H332.887H332.877H332.868H332.858H332.849H332.839H332.829H332.82H332.81H332.8H332.791H332.781H332.772H332.762H332.752H332.743H332.733H332.724H332.714H332.704H332.695H332.685H332.676H332.666H332.657H332.647H332.637H332.628H332.618H332.609H332.599H332.59H332.58H332.571H332.561H332.552H332.542H332.532H332.523H332.513H332.504H332.494H332.485H332.475H332.466H332.456H332.447H332.437H332.428H332.418H332.409H332.399H332.39H332.38H332.371H332.361H332.352H332.342H332.333H332.324H332.314H332.305H332.295H332.286H332.276H332.267H332.257H332.248H332.238H332.229H332.22H332.21H332.201H332.191H332.182H332.172H332.163H332.154H332.144H332.135H332.125H332.116H332.107H332.097H332.088H332.078H332.069H332.06H332.05H332.041H332.032H332.022H332.013H332.003H331.994H331.985H331.975H331.966H331.957H331.947H331.938H331.929H331.919H331.91H331.901H331.891H331.882H331.873H331.863H331.854H331.845H331.835H331.826H331.817H331.808H331.798H331.789H331.78H331.77H331.761H331.752H331.743H331.733H331.724H331.715H331.706H331.696H331.687H331.678H331.669H331.659H331.65H331.641H331.632H331.622H331.613H331.604H331.595H331.585H331.576H331.567H331.558H331.549H331.539H331.53H331.521H331.512H331.503H331.494H331.484H331.475H331.466H331.457H331.448H331.439H331.429H331.42H331.411H331.402H331.393H331.384H331.374H331.365H331.356H331.347H331.338H331.329H331.32H331.311H331.302H331.292H331.283H331.274H331.265H331.256H331.247H331.238H331.229H331.22H331.211H331.202H331.192H331.183H331.174H331.165H331.156H331.147H331.138H331.129H331.12H331.111H331.102H331.093H331.084H331.075H331.066H331.057H331.048H331.039H331.03H331.021H331.012H331.003H330.994H330.985H330.976H330.967H330.958H330.949H330.94H330.931H330.922H330.913H330.904H330.895H330.886H330.877H330.869H330.86H330.851H330.842H330.833H330.824H330.815H330.806H330.797H330.788H330.779H330.771H330.762H330.753H330.744H330.735H330.726H330.717H330.708H330.7H330.691H330.682H330.673H330.664H330.655H330.646H330.638H330.629H330.62H330.611H330.602H330.593H330.585H330.576H330.567H330.558H330.549H330.541H330.532H330.523H330.514H330.506H330.497H330.488H330.479H330.47H330.462H330.453H330.444H330.435H330.427H330.418H330.409H330.401H330.392H330.383H330.374H330.366H330.357H330.348H330.34H330.331H330.322H330.314H330.305H330.296H330.287H330.279H330.27H330.261H330.253H330.244H330.236H330.227H330.218H330.21H330.201H330.192H330.184H330.175H330.166H330.158H330.149H330.141H330.132H330.123H330.115H330.106H330.098H330.089H330.081H330.072H330.063H330.055H330.046H330.038H330.029H330.021H330.012H330.004H329.995H329.986H329.978H329.969H329.961H329.952H329.944H329.935H329.927H329.918H329.91H329.901H329.893H329.884H329.876H329.868H329.859H329.851H329.842H329.834H329.825H329.817H329.808H329.8H329.792H329.783H329.775H329.766H329.758H329.749H329.741H329.733H329.724H329.716H329.707H329.699H329.691H329.682H329.674H329.666H329.657H329.649H329.641H329.632H329.624H329.616H329.607H329.599H329.591H329.582H329.574H329.566H329.557H329.549H329.541H329.532H329.524H329.516H329.508H329.499H329.491H329.483H329.475H329.466H329.458H329.45H329.442H329.433H329.425H329.417H329.409H329.4H329.392H329.384H329.376H329.368H329.359H329.351H329.343H329.335H329.327H329.318H329.31H329.302H329.294H329.286H329.278H329.27H329.261H329.253H329.245H329.237H329.229H329.221H329.213H329.205H329.196H329.188H329.18H329.172H329.164H329.156H329.148H329.14H329.132H329.124H329.116H329.108H329.1H329.092H329.084H329.076H329.067H329.059H329.051H329.043H329.035H329.027H329.019H329.011H329.003H328.995H328.987H328.98H328.972H328.964H328.956H328.948H328.94H328.932H328.924H328.916H328.908H328.9H328.892H328.884H328.876H328.868H328.861H328.853H328.845H328.837H328.829H328.821H328.813H328.805H328.798H328.79H328.782H328.774H328.766H328.758H328.75H328.743H328.735H328.727H328.719H328.711H328.704H328.696H328.688H328.68H328.676C325.044 24.7425 322.569 24.0812 321.086 22.9159C319.619 21.7631 318.86 19.8596 318.86 17.2517C318.86 14.8604 319.402 13.2714 320.449 12.1163C321.519 11.0482 322.69 10.4098 324.075 10.0884C325.504 9.86895 327.367 9.65039 329.557 9.65039H338.846C341.594 9.65039 343.775 9.98061 345.286 10.5205C346.797 11.06 347.954 11.9125 348.579 13.0587C349.189 14.1767 349.515 15.6015 349.542 17.444H343.846C343.803 16.3047 343.454 15.3002 342.619 14.823C341.796 14.3527 340.533 14.016 338.735 14.016H329.225C328.212 14.016 327.313 14.1286 326.641 14.2406C325.904 14.3635 325.416 14.7361 324.957 15.195L324.945 15.2076L324.934 15.2218C324.562 15.7175 324.331 16.4376 324.331 17.3623C324.331 18.2932 324.565 19.001 324.92 19.592L324.926 19.603L324.934 19.6133C325.309 20.1131 325.922 20.4747 326.641 20.5946C327.312 20.7064 328.101 20.8192 329.225 20.8192H339.731C342.044 20.8192 343.801 20.9293 345.334 21.1482C346.717 21.3613 347.995 21.9995 349.064 23.0681C350.105 24.1095 350.649 25.6923 350.649 27.9781C350.649 30.2637 350.105 31.8402 348.962 32.8799C347.778 33.9558 346.497 34.5945 345.003 34.8078C343.471 35.0267 341.603 35.137 339.288 35.137H329.557C325.702 35.137 322.894 34.4737 321.301 33.3055Z" stroke="#F1F1F1" stroke-width="0.5"/>
<path d="M382.211 26.5411V10.5356H388.789V35.1376H382.211V32.7337V32.2566L381.819 32.5282C380.415 33.5003 378.567 34.2646 376.26 34.9242C373.845 35.4725 371.322 35.8012 368.581 35.8012H368.47C365.163 35.8012 362.548 35.4693 360.714 34.7142C358.887 33.9618 357.612 32.7885 356.867 31.0854C356.113 29.3601 355.672 26.8552 355.672 23.5554V10.5356H362.138V21.6756C362.138 23.6703 362.249 25.2462 362.59 26.4963C362.937 27.7694 363.636 28.8179 364.908 29.6272C366.183 30.4382 368.118 30.8827 370.793 30.8827H370.903C373.366 30.8827 375.61 30.4349 377.523 29.6475C379.426 28.8637 381.004 27.8519 382.138 26.7179L382.211 26.6447V26.5411Z" stroke="#F1F1F1" stroke-width="0.5"/>
<path d="M393.719 0.25H400.185V29.7176H393.719V0.25ZM400.185 30.2176V35.136H393.719V30.2176H400.185Z" stroke="#F1F1F1" stroke-width="0.5"/>
<path d="M409.862 4.64887L416.108 4.03458V10.1725V10.4225H416.358H426.503V15.2304H416.358H416.108V15.4804V24.1057C416.108 25.6729 416.331 26.9332 416.798 27.8668C417.262 28.7946 417.855 29.3951 418.692 29.754C419.515 30.1067 420.553 30.2166 421.887 30.2166H427.387V35.2457H422.223C419.027 35.1352 416.516 34.8047 414.674 34.1549C412.957 33.5105 411.687 32.4456 410.945 30.8561C410.194 29.2476 409.862 26.9697 409.862 23.9952V15.3698V15.1198H409.612H403.67V10.4225H409.612H409.862V10.1725V4.64887Z" stroke="#F1F1F1" stroke-width="0.5"/>
<path d="M432.427 0.25H438.893V5.6108H432.427V0.25ZM432.427 14.9285V10.3129H438.893V30.5205V35.136H432.427V30.5205V14.9285Z" stroke="#F1F1F1" stroke-width="0.5"/>
<path d="M450.776 12.9234C452.18 11.9515 454.028 11.1871 456.444 10.5276C458.859 9.97911 461.382 9.65039 464.124 9.65039H464.235C467.543 9.65039 470.157 9.98226 471.991 10.7374C473.818 11.4898 475.093 12.6631 475.838 14.3662C476.593 16.0915 477.033 18.5963 477.033 21.8961V34.9158H470.567V23.776C470.567 21.7812 470.457 20.2053 470.116 18.9552C469.769 17.6822 469.069 16.6336 467.797 15.8244C466.523 15.0134 464.587 14.5689 461.913 14.5689H461.802C459.339 14.5689 457.095 15.0166 455.183 15.8041C453.279 16.5878 451.701 17.5997 450.567 18.7337L450.494 18.8069V18.9104V34.9158H443.917V10.3139H450.383V12.7178V13.195L450.776 12.9234Z" stroke="#F1F1F1" stroke-width="0.5"/>
<path d="M484.726 43.8614V38.8429C486.165 39.3604 488.155 39.8672 490.516 40.2778L490.517 40.2781C493.186 40.7228 495.964 40.9449 498.963 40.9449H499.073C502.738 40.9449 505.651 40.5014 507.795 39.5984C508.873 39.1448 509.688 38.5688 510.234 37.8461C510.782 37.12 511.045 36.2636 511.045 35.2765V31.2955V30.6919L510.618 31.1187C508.147 33.5894 503.811 34.8053 497.525 34.8053H497.414C491.908 34.8053 487.882 33.8128 485.292 31.8711C482.83 29.943 481.52 26.8225 481.52 22.3384C481.52 17.8552 482.829 14.7295 485.299 12.6894C487.774 10.6448 491.792 9.65039 497.414 9.65039H497.525C503.802 9.65039 508.036 10.9732 510.622 13.4512L511.045 13.8566V13.2707V10.2033H517.622V35.0553C517.622 37.0144 517.296 38.7528 516.755 40.2718C516.126 41.7323 514.646 43.0227 512.018 44.2275C509.415 45.4202 505.369 45.974 499.958 45.974H499.847H499.839L499.831 45.9745C496.423 46.1944 493.346 45.9745 490.71 45.5351C488.143 45.1072 486.122 44.5795 484.726 43.8614ZM498.741 30.4397V30.4398L498.748 30.4396C503.063 30.329 506.223 29.7773 508.166 28.5197C510.133 27.2471 511.045 25.2776 511.045 22.5596C511.045 19.8321 510.015 17.8677 508.055 16.5995C506.111 15.3412 502.951 14.7901 498.741 14.7901H498.631C495.858 14.7901 493.614 15.0111 491.917 15.5769C490.228 16.1398 488.957 16.9385 488.142 18.1035C487.328 19.267 486.991 20.7621 486.991 22.5596C486.991 25.3845 487.9 27.3522 489.753 28.6264C491.589 29.8888 494.642 30.4397 498.631 30.4397H498.741Z" stroke="#F1F1F1" stroke-width="0.5"/>
<path d="M0.902344 73.2592H4.48542V75.4553C7.02827 73.7215 10.2647 72.7969 14.1945 72.7969H14.3101C16.8529 72.7969 18.8179 73.0281 20.2049 73.606C21.5919 74.0683 22.6321 74.993 23.3256 76.2644C24.3659 75.3397 25.8685 74.5306 27.949 73.8371C29.9139 73.1436 31.9945 72.7969 34.1906 72.7969H34.3061C37.0801 72.7969 39.2762 73.1436 40.6632 73.7215C42.0503 74.2995 43.0905 75.3397 43.5528 76.7267C44.0152 78.1137 44.3619 79.963 44.3619 82.5059V93.1397H40.5477V84.2397C40.5477 82.1591 40.4321 80.6566 40.201 79.6163C39.9698 78.576 39.2763 77.6514 38.236 76.9579C37.1957 76.2644 35.462 75.9177 33.1503 75.9177H33.0347C30.8386 75.9177 29.1048 76.2644 27.6023 76.8423C26.0997 77.5358 25.0594 78.2293 24.3659 79.154V93.1397H20.7828V84.2397C20.7828 82.1591 20.6672 80.6566 20.436 79.6163C20.2049 78.576 19.5114 77.6514 18.4711 76.9579C17.4309 76.2644 15.6971 75.9177 13.2699 75.9177H13.1542C10.9581 75.9177 9.10878 76.2644 7.72177 76.8423C6.21917 77.5358 5.17893 78.2293 4.48542 79.154V93.1397H0.902344V73.2592Z" fill="#F1F1F1"/>
<path d="M51.2969 90.9436C49.1008 89.2098 48.0605 86.6669 48.0605 83.0838C48.0605 79.6163 49.1008 77.0735 51.1813 75.3397C53.2618 73.606 56.6138 72.7969 61.2372 72.7969H61.3527C64.0111 72.7969 66.2073 73.0281 67.941 73.606C69.6748 74.1839 71.1773 74.9929 72.102 76.1488V73.2592H75.6852V93.0241H72.102V90.0189C70.0215 92.3306 66.4384 93.3708 61.3527 93.3708H61.2372C56.7294 93.4864 53.3774 92.6774 51.2969 90.9436ZM61.5839 90.3657C65.2826 90.3657 67.941 89.7878 69.5592 88.6319C71.1773 87.4761 71.9865 85.6267 71.9865 83.1994C71.9865 80.6566 71.1773 78.8073 69.5592 77.6514C67.941 76.4956 65.2826 75.9177 61.5839 75.9177H61.4683C58.9254 75.9177 56.9605 76.1488 55.458 76.6111C53.9554 77.0735 52.7995 77.8826 52.106 78.9228C51.4125 79.9631 51.0657 81.3501 51.0657 83.0838C51.0657 84.8176 51.4125 86.2046 52.106 87.2449C52.7995 88.2852 53.9554 89.0942 55.458 89.5566C56.9605 90.0189 59.041 90.3657 61.5839 90.3657Z" fill="#F1F1F1"/>
<path d="M79.6104 73.2592H83.1935V76.0332C84.1182 74.993 85.5052 74.2995 87.3545 73.7215C89.2038 73.1436 91.0532 72.7969 93.0182 72.7969H93.1337C95.2142 72.7969 96.948 73.028 98.2194 73.4904V76.4956C97.6415 76.2644 96.948 76.0332 96.1389 76.0332C95.3298 76.0332 94.1739 75.9177 92.6713 75.9177H92.5558C90.822 75.9177 89.2039 76.1488 87.8169 76.7267C86.4299 77.3046 85.3895 77.8825 84.5805 78.4605C83.7714 79.154 83.3091 79.5008 83.1935 79.7319V93.1397H79.6104V73.2592Z" fill="#F1F1F1"/>
<path d="M103.079 68.4048H106.662V79.1541L119.492 73.8372H126.195L110.014 81.119L127.005 93.1398H121.457L106.893 83.0839H106.777V93.1398H103.194V68.4048H103.079Z" fill="#F1F1F1"/>
<path d="M132.669 91.057C130.473 89.4388 129.433 86.7804 129.433 83.3128C129.433 80.6544 130.011 78.5739 131.167 77.0713C132.323 75.5687 133.825 74.5285 135.906 73.9505C137.871 73.3726 140.298 73.0259 143.188 73.0259C147.464 73.0259 150.701 73.7193 152.897 74.9908C155.093 76.2622 156.364 78.3428 156.827 81.1168C156.942 81.6947 156.942 82.5038 156.942 83.7752H132.901C133.016 85.3934 133.363 86.6648 134.056 87.705C134.75 88.7453 135.906 89.4388 137.293 89.9011C138.795 90.3635 140.76 90.5946 143.188 90.5946H143.303C146.308 90.5946 148.62 90.2479 150.123 89.5544C151.625 88.8609 152.781 87.8207 153.243 86.3181H156.711C156.133 88.8609 154.862 90.7103 152.666 91.8661C150.469 93.0219 147.349 93.5999 143.303 93.5999H143.188C138.333 93.4843 134.866 92.6752 132.669 91.057ZM150.354 77.0713C148.736 76.2622 146.424 75.9155 143.188 75.9155H143.072C139.951 75.9155 137.524 76.2622 135.906 77.0713C134.288 77.8804 133.363 79.1518 133.016 81.0011H153.243C152.897 79.1518 151.972 77.8804 150.354 77.0713Z" fill="#F1F1F1"/>
<path d="M168.149 92.4479C166.878 91.9856 165.953 91.0609 165.375 89.9051C164.797 88.6336 164.566 86.8999 164.566 84.5882V76.3817H159.596V73.3765H164.566V68.8687L168.034 68.522V73.3765H176.934V76.3817H168.034V84.5882C168.034 86.0908 168.265 87.2466 168.612 88.0557C168.958 88.8648 169.536 89.3271 170.23 89.5583C170.923 89.7895 171.964 89.9051 173.235 89.9051H177.974V93.1414H173.582C171.27 93.1414 169.421 92.9103 168.149 92.4479Z" fill="#F1F1F1"/>
<path d="M182.013 65.3984H185.596V69.3283H182.013V65.3984ZM182.013 76.1478V73.2582H185.596V90.2491V93.1387H182.013V90.2491V76.1478Z" fill="#F1F1F1"/>
<path d="M189.411 73.2592H192.995V75.4553C194.15 74.6462 195.653 74.0683 197.502 73.4904C199.467 73.028 201.432 72.7969 203.628 72.7969H203.744C206.518 72.7969 208.598 73.1436 209.985 73.7215C211.372 74.2995 212.413 75.3397 212.991 76.7267C213.569 78.1137 213.8 80.0786 213.8 82.7371V93.1397H210.217V84.2397C210.217 82.1591 210.101 80.6566 209.87 79.6163C209.639 78.576 208.945 77.6514 207.905 76.9579C206.865 76.2644 205.131 75.9177 202.704 75.9177H202.588C200.392 75.9177 198.543 76.2644 196.809 76.8423C195.191 77.5358 193.804 78.2293 192.879 79.154V93.1397H189.296V73.2592H189.411Z" fill="#F1F1F1"/>
<path d="M224.782 101.228C222.817 100.882 221.314 100.304 220.274 99.7258V96.7207C221.43 97.2986 222.932 97.7609 224.782 98.2232C226.631 98.57 228.711 98.8012 231.023 98.8012H231.139C234.375 98.8012 236.918 98.3388 238.883 97.5297C240.848 96.7206 241.772 95.3336 241.772 93.7154V90.1323C239.808 92.3284 236.224 93.4842 231.023 93.4842H230.908C226.4 93.4842 223.048 92.6752 220.967 91.057C218.771 89.4388 217.731 86.896 217.731 83.3128C217.731 79.8453 218.771 77.3024 220.852 75.5687C222.932 73.8349 226.284 73.0259 230.908 73.0259H231.023C236.224 73.0259 239.808 74.1817 241.888 76.3778V73.4882H245.471V93.1375C245.471 94.6401 245.24 95.9115 244.778 97.183C244.315 98.3388 243.044 99.4946 241.079 100.419C238.998 101.344 235.993 101.922 231.717 101.922H231.601C228.943 101.806 226.747 101.575 224.782 101.228ZM237.265 89.5544C238.767 89.0921 239.923 88.283 240.617 87.2427C241.31 86.2025 241.657 84.8154 241.657 83.0817C241.657 81.3479 241.31 80.0765 240.617 78.9206C239.923 77.7648 238.767 77.0713 237.265 76.609C235.762 76.1466 233.682 75.7999 231.139 75.7999H231.023C228.48 75.7999 226.515 76.0311 225.013 76.4934C223.51 76.9557 222.47 77.7648 221.776 78.8051C221.083 79.8454 220.736 81.2323 220.736 82.9661C220.736 84.6999 221.083 86.0868 221.776 87.1271C222.47 88.1674 223.51 88.9765 225.013 89.4388C226.515 89.9011 228.48 90.1323 230.908 90.1323H231.023C233.682 90.3635 235.762 90.1323 237.265 89.5544Z" fill="#F1F1F1"/>
<path d="M271.246 92.6769C269.281 91.9834 267.779 91.0587 266.738 89.9028C265.698 88.6314 265.236 87.2444 265.236 85.5107C265.236 84.0081 265.698 82.7366 266.507 81.5808C267.432 80.4249 268.588 79.5003 270.09 78.8068C268.934 77.7665 268.472 76.2639 268.472 74.4145C268.472 72.6808 269.281 71.1782 270.668 70.0223C272.171 68.8665 274.598 68.2886 278.066 68.2886C280.84 68.2886 282.92 68.5198 284.538 69.0977C286.041 69.6756 287.197 70.6003 287.89 71.7561C288.584 73.0275 288.815 74.6457 288.815 76.8418H285.463C285.463 75.4548 285.232 74.299 284.77 73.4899C284.307 72.6808 283.614 72.1029 282.573 71.7561C281.533 71.4093 280.146 71.1782 278.412 71.1782C276.216 71.1782 274.598 71.4094 273.558 71.9873C272.518 72.5652 272.055 73.3743 272.055 74.5302C272.055 75.1081 272.171 75.686 272.518 76.2639C272.864 76.8418 273.442 77.3041 274.251 77.8821L287.544 85.7418C288.121 84.8172 288.468 83.8924 288.584 83.0833C288.699 82.2743 288.815 81.2341 288.815 79.9626H292.282C292.282 81.3496 292.167 82.6211 291.82 84.0081C291.473 85.2795 291.127 86.5509 290.549 87.4756L292.514 88.6314L290.78 91.0587L288.584 89.7873C287.312 91.0587 285.81 91.9833 284.076 92.5613C282.342 93.1392 280.377 93.4859 278.181 93.4859C275.523 93.7171 273.211 93.3704 271.246 92.6769ZM282.458 90.134C283.614 89.7873 284.77 89.0937 285.694 88.2846L272.518 80.4249C271.246 81.1184 270.206 81.8119 269.512 82.5054C268.819 83.3145 268.472 84.1236 268.472 85.0483C268.472 86.8976 269.397 88.2847 271.246 89.2094C273.096 90.134 275.523 90.5963 278.297 90.5963C279.915 90.7119 281.186 90.4808 282.458 90.134Z" fill="#F1F1F1"/>
<path d="M315.977 90.1335V93.1386H312.394V65.3984H315.977V76.2634C318.058 74.0673 321.641 72.9114 326.726 72.9114H326.842C331.35 72.9114 334.702 73.7205 336.782 75.3387C338.863 76.9569 340.019 79.6153 340.019 83.0828C340.019 86.6659 338.978 89.2088 336.782 90.9426C334.586 92.6763 331.35 93.4854 326.842 93.4854H326.726C321.641 93.4854 318.058 92.3296 315.977 90.1335ZM332.506 89.6711C334.008 89.2088 335.164 88.3997 335.858 87.3594C336.551 86.3192 336.898 84.9322 336.898 83.1984C336.898 81.4647 336.551 80.0776 335.858 79.0374C335.164 77.9971 334.008 77.188 332.506 76.7257C331.003 76.2633 329.038 76.0322 326.495 76.0322H326.38C322.681 76.0322 320.023 76.6101 318.404 77.766C316.786 78.9218 315.977 80.7711 315.977 83.314C315.977 85.8568 316.786 87.5906 318.404 88.7465C320.023 89.9023 322.681 90.4802 326.38 90.4802H326.495C329.038 90.3646 331.003 90.1334 332.506 89.6711Z" fill="#F1F1F1"/>
<path d="M343.958 73.2592H347.541V76.0332C348.465 74.993 349.852 74.2995 351.702 73.7215C353.551 73.1436 355.4 72.7969 357.365 72.7969H357.481C359.561 72.7969 361.295 73.028 362.567 73.4904V76.4956C361.989 76.2644 361.295 76.0332 360.486 76.0332C359.677 76.0332 358.521 75.9177 357.019 75.9177H356.903C355.169 75.9177 353.551 76.1488 352.164 76.7267C350.777 77.3046 349.737 77.8825 348.928 78.4605C348.119 79.154 347.656 79.5008 347.541 79.7319V93.1397H343.958V73.2592Z" fill="#F1F1F1"/>
<path d="M369.609 90.9436C367.413 89.2098 366.373 86.6669 366.373 83.0838C366.373 79.6163 367.413 77.0735 369.494 75.3397C371.574 73.606 374.926 72.7969 379.55 72.7969H379.665C382.324 72.7969 384.52 73.0281 386.253 73.606C387.987 74.1839 389.49 74.9929 390.415 76.1488V73.2592H393.998V93.0241H390.415V90.0189C388.334 92.3306 384.751 93.3708 379.665 93.3708H379.55C375.157 93.4864 371.805 92.6774 369.609 90.9436ZM380.012 90.3657C383.711 90.3657 386.369 89.7878 387.987 88.6319C389.605 87.4761 390.415 85.6267 390.415 83.1994C390.415 80.6566 389.605 78.8073 387.987 77.6514C386.369 76.4956 383.711 75.9177 380.012 75.9177H379.896C377.353 75.9177 375.389 76.1488 373.886 76.6111C372.383 77.0735 371.228 77.8826 370.534 78.9228C369.841 79.9631 369.494 81.3501 369.494 83.0838C369.494 84.8176 369.841 86.2046 370.534 87.2449C371.228 88.2852 372.383 89.0942 373.886 89.5566C375.389 90.0189 377.354 90.3657 380.012 90.3657Z" fill="#F1F1F1"/>
<path d="M397.932 73.2592H401.515V75.4553C402.671 74.6462 404.174 74.0683 406.023 73.4904C407.988 73.028 409.953 72.7969 412.149 72.7969H412.264C415.038 72.7969 417.119 73.1436 418.506 73.7215C419.893 74.2995 420.933 75.3397 421.511 76.7267C422.089 78.1137 422.32 80.0786 422.32 82.7371V93.1397H418.737V84.2397C418.737 82.1591 418.622 80.6566 418.39 79.6163C418.159 78.576 417.466 77.6514 416.425 76.9579C415.385 76.2644 413.651 75.9177 411.224 75.9177H411.109C408.912 75.9177 407.063 76.2644 405.329 76.8423C403.711 77.5358 402.324 78.2293 401.4 79.154V93.1397H397.816V73.2592H397.932Z" fill="#F1F1F1"/>
<path d="M429.486 90.9426C427.29 89.3244 426.25 86.6659 426.25 83.0828C426.25 79.4997 427.29 76.9569 429.486 75.3387C431.566 73.7205 434.918 72.9114 439.426 72.9114H439.542C444.743 72.9114 448.326 74.0673 450.291 76.2634V65.3984H453.874V93.1386H450.291V90.1335C448.21 92.4452 444.627 93.4854 439.542 93.4854H439.426C435.034 93.4854 431.682 92.6763 429.486 90.9426ZM439.773 90.3647C443.472 90.3647 446.13 89.7867 447.748 88.6309C449.366 87.4751 450.175 85.6257 450.175 83.1984C450.175 80.6556 449.366 78.8062 447.748 77.6504C446.13 76.4946 443.472 75.9166 439.773 75.9166H439.657C437.114 75.9166 435.149 76.1478 433.647 76.6101C432.144 77.0725 430.988 77.8815 430.295 78.9218C429.601 79.9621 429.255 81.349 429.255 83.0828C429.255 84.8166 429.601 86.2036 430.295 87.2439C430.988 88.2841 432.144 89.0932 433.647 89.5556C435.149 90.0179 437.23 90.3647 439.773 90.3647Z" fill="#F1F1F1"/>
<path d="M457.799 65.3984H461.382V69.3283H457.799V65.3984ZM457.799 76.1478V73.2582H461.382V90.2491V93.1387H457.799V90.2491V76.1478Z" fill="#F1F1F1"/>
<path d="M465.32 73.2592H468.903V75.4553C470.059 74.6462 471.561 74.0683 473.411 73.4904C475.375 73.028 477.34 72.7969 479.536 72.7969H479.652C482.426 72.7969 484.507 73.1436 485.894 73.7215C487.281 74.2995 488.321 75.3397 488.899 76.7267C489.477 78.1137 489.708 80.0786 489.708 82.7371V93.1397H486.125V84.2397C486.125 82.1591 486.009 80.6566 485.778 79.6163C485.547 78.576 484.853 77.6514 483.813 76.9579C482.773 76.2644 481.039 75.9177 478.612 75.9177H478.496C476.3 75.9177 474.451 76.2644 472.717 76.8423C471.099 77.5358 469.712 78.2293 468.787 79.154V93.1397H465.204V73.2592H465.32Z" fill="#F1F1F1"/>
<path d="M500.569 101.228C498.604 100.882 497.102 100.304 496.061 99.7258V96.7207C497.217 97.2986 498.72 97.7609 500.569 98.2232C502.419 98.57 504.499 98.8012 506.811 98.8012H506.926C510.163 98.8012 512.706 98.3388 514.67 97.5297C516.635 96.7206 517.56 95.3336 517.56 93.7154V90.1323C515.595 92.3284 512.012 93.4842 506.811 93.4842H506.695C502.187 93.4842 498.835 92.6752 496.755 91.057C494.559 89.4388 493.519 86.896 493.519 83.3128C493.519 79.8453 494.559 77.3024 496.639 75.5687C498.72 73.8349 502.072 73.0259 506.695 73.0259H506.811C512.012 73.0259 515.595 74.1817 517.676 76.3778V73.4882H521.259V93.1375C521.259 94.6401 521.028 95.9115 520.565 97.183C520.103 98.3388 518.831 99.4946 516.866 100.419C514.786 101.344 511.781 101.922 507.504 101.922H507.389C504.73 101.806 502.534 101.575 500.569 101.228ZM513.168 89.5544C514.67 89.0921 515.826 88.283 516.52 87.2427C517.213 86.2025 517.56 84.8154 517.56 83.0817C517.56 81.3479 517.213 80.0765 516.52 78.9206C515.826 77.7648 514.67 77.0713 513.168 76.609C511.665 76.1466 509.585 75.7999 507.042 75.7999H506.926C504.383 75.7999 502.418 76.0311 500.916 76.4934C499.413 76.9557 498.373 77.7648 497.68 78.8051C496.986 79.8454 496.639 81.2323 496.639 82.9661C496.639 84.6999 496.986 86.0868 497.68 87.1271C498.373 88.1674 499.413 88.9765 500.916 89.4388C502.418 89.9011 504.383 90.1323 506.811 90.1323H506.926C509.585 90.3635 511.55 90.1323 513.168 89.5544Z" fill="#F1F1F1"/>
</svg>
