<svg width="25" height="25" viewBox="0 0 25 25" fill="none" xmlns="http://www.w3.org/2000/svg">
<path fill-rule="evenodd" clip-rule="evenodd" d="M1.82275 6.25033C1.82275 5.5312 2.40572 4.94824 3.12484 4.94824H21.8748C22.594 4.94824 23.1769 5.5312 23.1769 6.25033C23.1769 6.96945 22.594 7.55241 21.8748 7.55241H3.12484C2.40572 7.55241 1.82275 6.96945 1.82275 6.25033ZM1.82275 12.5003C1.82275 11.7812 2.40572 11.1982 3.12484 11.1982H21.8748C22.594 11.1982 23.1769 11.7812 23.1769 12.5003C23.1769 13.2194 22.594 13.8024 21.8748 13.8024H3.12484C2.40572 13.8024 1.82275 13.2194 1.82275 12.5003ZM1.82275 18.7503C1.82275 18.0312 2.40572 17.4482 3.12484 17.4482H12.4998H21.8748C22.594 17.4482 23.1769 18.0312 23.1769 18.7503C23.1769 19.4694 22.594 20.0524 21.8748 20.0524H3.12484C2.40572 20.0524 1.82275 19.4694 1.82275 18.7503Z" fill="#2C33D6"/>
</svg>
