<svg width="518" height="47" viewBox="0 0 518 47" fill="none" xmlns="http://www.w3.org/2000/svg">
<path d="M28.6602 35.0271H1.1543V4.6748H27.2227C31.0778 4.6748 33.886 5.33811 35.479 6.5063C37.0486 7.65735 37.8097 9.66485 37.8097 12.2761C37.8097 13.6953 37.59 14.856 37.0736 15.6822C36.541 16.5343 35.6802 17.3987 34.575 18.3934L34.2782 18.6605L34.6481 18.8108C36.383 19.5156 37.6668 20.4841 38.5179 21.7077C39.3685 22.9305 39.8001 24.4265 39.8001 26.2094C39.8001 29.3725 38.9289 31.6046 37.1337 32.9774L37.1337 32.9773L37.1279 32.982C35.4278 34.3634 32.6264 35.0271 28.6602 35.0271ZM29.3456 16.1373L29.3547 16.1317L29.3631 16.1253C30.3358 15.3958 30.6795 14.3075 30.6795 12.9396C30.6795 11.5483 30.2096 10.5721 29.2351 9.96306C28.2869 9.37045 26.8982 9.15097 25.0111 9.15097H8.42384H8.17384V9.40097V16.8099V17.0599H8.42384H24.5687C26.7933 17.0599 28.3999 16.7284 29.3456 16.1373ZM8.42384 21.7573H8.17384V22.0073V29.9692V30.2192H8.42384H27.2161C29.3203 30.3291 30.8504 30.006 31.7053 29.1575C32.5562 28.423 32.8912 27.2286 32.8912 25.767C32.8912 24.2794 32.4306 23.1843 31.4467 22.5694C30.4985 21.9768 29.1099 21.7573 27.2227 21.7573H8.42384Z" stroke="#F1F1F1" stroke-width="0.5"/>
<path d="M71.0912 34.2635C68.4867 33.3953 66.6527 31.9902 65.3585 30.1585C64.1778 28.3314 63.5215 25.7308 63.5215 22.6684C63.5215 19.6056 64.178 17.1133 65.3613 15.2847C66.5402 13.4627 68.4784 12.0549 71.0912 11.184C73.7101 10.311 77.1085 9.86981 81.4068 9.86981H81.5174C85.8165 9.86981 89.3253 10.3112 91.9436 11.184C94.5515 12.0533 96.3816 13.459 97.563 15.2847C98.7433 17.1089 99.2922 19.5982 99.2922 22.5579C99.2922 25.629 98.743 28.1179 97.563 29.9416C96.3821 31.7665 94.5516 33.1739 91.9392 34.1544C89.3172 35.0277 85.808 35.5776 81.5174 35.5776H81.4068C77.1085 35.5776 73.7101 35.1364 71.0912 34.2635ZM81.4068 30.5486C84.1781 30.5486 86.5332 30.3277 88.2313 29.7616C89.9199 29.1988 91.1908 28.4 92.0063 27.235C92.8214 26.0706 93.1573 24.5746 93.1573 22.6684C93.1573 20.7622 92.8214 19.2663 92.0063 18.1018C91.1972 16.946 89.9318 16.0298 88.2241 15.5728C86.5272 15.0086 84.2851 14.7883 81.4068 14.7883H81.2962C78.525 14.7883 76.1698 15.0091 74.4717 15.5752C72.7832 16.138 71.5123 16.9368 70.6968 18.1018C69.881 19.2672 69.5458 20.8746 69.5458 22.6684C69.5458 24.5746 69.8817 26.0706 70.6968 27.235C71.507 28.3925 72.7749 29.3096 74.4864 29.766C76.1693 30.2148 78.5136 30.5486 81.4068 30.5486Z" stroke="#F1F1F1" stroke-width="0.5"/>
<path d="M111.192 12.9231C112.596 11.9512 114.444 11.1869 116.861 10.5274C119.276 9.97886 121.799 9.65015 124.541 9.65015H124.651C127.959 9.65015 130.574 9.98201 132.407 10.7371C134.235 11.4895 135.509 12.6628 136.255 14.366C137.009 16.0912 137.45 18.5961 137.45 21.8958V34.9156H130.983V23.7757C130.983 21.781 130.873 20.2051 130.532 18.955C130.185 17.6819 129.485 16.6334 128.214 15.8241C126.939 15.0131 125.004 14.5687 122.329 14.5687H122.219C119.756 14.5687 117.512 15.0164 115.599 15.8039C113.696 16.5876 112.118 17.5994 110.984 18.7334L110.91 18.8066V18.9102V34.9156H104.333V10.3137H110.8V12.7176V13.1947L111.192 12.9231Z" stroke="#F1F1F1" stroke-width="0.5"/>
<path d="M143.989 30.1718L143.989 30.1717L143.983 30.1627C142.803 28.3397 142.254 25.8512 142.254 22.6684C142.254 19.2681 142.913 16.6723 144.199 14.8507C145.487 13.0258 147.425 11.7272 150.036 10.9656C152.657 10.2011 155.947 9.86981 160.139 9.86981C163.997 9.86981 167.181 10.2007 169.697 10.857C172.203 11.5108 174.038 12.5954 175.326 13.9915C176.612 15.3843 177.479 17.324 177.806 19.7165L177.806 19.718C177.916 20.4918 178.025 21.3609 178.025 22.1155V22.12V22.1246V22.1291V22.1336V22.1381V22.1426V22.1471V22.1516V22.1561V22.1606V22.1651V22.1696V22.174V22.1785V22.183V22.1874V22.1919V22.1963V22.2007V22.2052V22.2096V22.214V22.2185V22.2229V22.2273V22.2317V22.2361V22.2405V22.2449V22.2492V22.2536V22.258V22.2624V22.2667V22.2711V22.2754V22.2798V22.2841V22.2884V22.2928V22.2971V22.3014V22.3057V22.31V22.3143V22.3186V22.3229V22.3272V22.3315V22.3357V22.34V22.3443V22.3485V22.3528V22.357V22.3613V22.3655V22.3697V22.3739V22.3782V22.3824V22.3866V22.3908V22.395V22.3992V22.4033V22.4075V22.4117V22.4159V22.42V22.4242V22.4283V22.4325V22.4366V22.4407V22.4449V22.449V22.4531V22.4572V22.4613V22.4654V22.4695V22.4736V22.4776V22.4817V22.4858V22.4898V22.4939V22.4979V22.502V22.506V22.5101V22.5141V22.5181V22.5221V22.5261V22.5301V22.5341V22.5381V22.5421V22.5461V22.55V22.554V22.558V22.5619V22.5659V22.5698V22.5737V22.5777V22.5816V22.5855V22.5894V22.5933V22.5972V22.6011V22.605V22.6089V22.6127V22.6166V22.6205V22.6243V22.6282V22.632V22.6358V22.6397V22.6435V22.6473V22.6511V22.6549V22.6587V22.6625V22.6663V22.6701V22.6738V22.6776V22.6814V22.6851V22.6889V22.6926V22.6963V22.7001V22.7038V22.7075V22.7112V22.7149V22.7186V22.7223V22.726V22.7296V22.7333V22.737V22.7406V22.7443V22.7479V22.7516V22.7552V22.7588V22.7624V22.766V22.7696V22.7732V22.7768V22.7804V22.784V22.7875V22.7911V22.7947V22.7982V22.8018V22.8053V22.8088V22.8123V22.8159V22.8194V22.8229V22.8264V22.8299V22.8333V22.8368V22.8403V22.8437V22.8472V22.8506V22.8541V22.8575V22.8609V22.8644V22.8678V22.8712V22.8746V22.878V22.8814V22.8847V22.8881V22.8915V22.8948V22.8982V22.9015V22.9048V22.9082V22.9115V22.9148V22.9181V22.9214V22.9247V22.928V22.9313V22.9346V22.9378V22.9411V22.9443V22.9476V22.9508V22.954V22.9573V22.9605V22.9637V22.9669V22.9701V22.9733V22.9764V22.9796V22.9828V22.9859V22.9891V22.9922V22.9954V22.9985V23.0016V23.0047V23.0078V23.0109V23.014V23.0171V23.0202V23.0233V23.0263V23.0294V23.0324V23.0355V23.0385V23.0415V23.0445V23.0475V23.0505V23.0535V23.0565V23.0595V23.0625V23.0654V23.0684V23.0713V23.0743V23.0772V23.0802V23.0831V23.086V23.0889V23.0918V23.0947V23.0976V23.1004V23.1033V23.1062V23.109V23.1118V23.1147V23.1175V23.1203V23.1231V23.1259V23.1287V23.1315V23.1343V23.1371V23.1399V23.1426V23.1454V23.1481V23.1508V23.1536V23.1563V23.159V23.1617V23.1644V23.1671V23.1698V23.1724V23.1751V23.1778V23.1804V23.183V23.1857V23.1883V23.1909V23.1935V23.1961V23.1987V23.2013V23.2039V23.2064V23.209V23.2116V23.2141V23.2166V23.2192V23.2217V23.2242V23.2267V23.2292V23.2317V23.2342V23.2366V23.2391V23.2415V23.244V23.2464V23.2489V23.2513V23.2537V23.2561V23.2585V23.2609V23.2633V23.2656V23.268V23.2704V23.2727V23.275V23.2774V23.2797V23.282V23.2843V23.2866V23.2889V23.2912V23.2935V23.2957V23.298V23.3002V23.3025V23.303H148.639H148.372L148.389 23.5697C148.503 25.2764 149.073 26.6515 149.879 27.6875C150.699 28.7412 151.972 29.4245 153.646 29.9828L153.654 29.9852L153.661 29.9872C155.349 30.4372 157.473 30.6591 160.139 30.6591H160.25C163.467 30.6591 165.938 30.3272 167.641 29.646C169.296 28.9841 170.537 27.8886 171.244 26.457H177.734C177.185 28.6076 176.333 30.3383 175.002 31.6699L175.001 31.6697L174.995 31.6771C173.712 33.0666 171.772 34.0446 169.362 34.7018C166.959 35.3573 163.887 35.6882 160.139 35.6882H160.032C155.619 35.5777 152.11 35.1363 149.492 34.2634C146.882 33.3935 145.058 31.9888 143.989 30.1718ZM148.727 19.5149L148.655 19.8221H148.971H171.197H171.531L171.437 19.5016C170.866 17.5584 169.714 16.1714 167.986 15.3647C166.278 14.5677 163.581 14.1248 160.139 14.1248H160.029C156.589 14.1248 153.893 14.5672 152.185 15.3634C150.345 16.1692 149.187 17.5594 148.727 19.5149Z" stroke="#F1F1F1" stroke-width="0.5"/>
<path d="M208.654 34.2634C206.047 33.3944 204.22 31.9901 203.039 30.0576C201.851 28.1145 201.195 25.6188 201.195 22.5578C201.195 19.4887 201.744 17.1095 202.925 15.2847C204.106 13.459 205.936 12.0533 208.544 11.184C211.162 10.3112 214.671 9.86981 218.97 9.86981H219.081C224.593 9.86981 228.638 10.6426 231.35 12.0532C233.955 13.4079 235.556 15.5658 236.345 18.6587H229.959C229.247 17.3325 228.001 16.3475 226.348 15.7963C224.654 15.2317 222.191 14.8989 219.191 14.8989H219.081C216.309 14.8989 213.954 15.1198 212.256 15.6858C210.568 16.2486 209.297 17.0474 208.481 18.2124C207.666 19.3769 207.33 20.8728 207.33 22.779C207.33 24.6852 207.666 26.1812 208.481 27.3456C209.29 28.5014 210.556 29.4175 212.263 29.8746C213.96 30.4387 216.202 30.6591 219.081 30.6591H219.191C222.191 30.6591 224.654 30.3263 226.348 29.7616C228.001 29.2104 229.247 28.2255 229.959 26.8994H236.352C235.657 29.889 233.957 32.1495 231.35 33.5047C228.637 34.9155 224.592 35.6882 219.191 35.6882H219.084C214.672 35.5777 211.273 35.1364 208.654 34.2634Z" stroke="#F1F1F1" stroke-width="0.5"/>
<path d="M247.911 34.2645L247.908 34.2635C245.303 33.3953 243.469 31.9902 242.175 30.1585C240.994 28.3314 240.338 25.7308 240.338 22.6684C240.338 19.6056 240.994 17.1133 242.178 15.2847C243.357 13.4627 245.295 12.0549 247.908 11.184C250.526 10.311 253.925 9.86981 258.223 9.86981H258.334C262.633 9.86981 266.142 10.3112 268.76 11.184C271.368 12.0533 273.198 13.459 274.379 15.2847C275.56 17.1089 276.109 19.5983 276.109 22.5579C276.109 25.629 275.559 28.1179 274.379 29.9416C273.199 31.7665 271.368 33.1739 268.756 34.1544C266.134 35.0277 262.624 35.5776 258.334 35.5776H258.223C253.923 35.5776 250.416 35.136 247.911 34.2645ZM258.223 30.5486C260.994 30.5486 263.35 30.3277 265.048 29.7616C266.736 29.1988 268.007 28.4 268.823 27.235C269.638 26.0706 269.974 24.5746 269.974 22.6684C269.974 20.7622 269.638 19.2663 268.823 18.1018C268.014 16.946 266.748 16.0298 265.041 15.5728C263.344 15.0086 261.102 14.7883 258.223 14.7883H258.113C255.341 14.7883 252.986 15.0091 251.288 15.5752C249.6 16.138 248.329 16.9368 247.513 18.1018C246.697 19.2672 246.362 20.8746 246.362 22.6684C246.362 24.5746 246.698 26.0706 247.513 27.235C248.323 28.3913 249.589 29.3078 251.298 29.7647C253.102 30.3276 255.342 30.5486 258.223 30.5486Z" stroke="#F1F1F1" stroke-width="0.5"/>
<path d="M288.001 12.9231C289.405 11.9512 291.253 11.1869 293.669 10.5274C296.084 9.97886 298.607 9.65015 301.349 9.65015H301.46C304.768 9.65015 307.382 9.98201 309.216 10.7371C311.043 11.4895 312.318 12.6628 313.063 14.366C313.818 16.0912 314.259 18.5961 314.259 21.8958V34.9156H307.792V23.7757C307.792 21.781 307.682 20.2051 307.341 18.955C306.994 17.6819 306.294 16.6334 305.022 15.8241C303.748 15.0131 301.812 14.5687 299.138 14.5687H299.027C296.564 14.5687 294.32 15.0164 292.408 15.8039C290.504 16.5876 288.926 17.5994 287.792 18.7334L287.719 18.8066V18.9102V34.9156H281.142V10.3137H287.608V12.7176V13.1947L288.001 12.9231Z" stroke="#F1F1F1" stroke-width="0.5"/>
<path d="M321.3 33.3053L321.3 33.3052L321.294 33.3009C319.666 32.1819 318.802 30.2614 318.751 27.6749H324.006C324.068 28.7342 324.532 29.6126 325.341 30.0748C326.169 30.5481 327.657 30.8818 329.556 30.8818H340.061C340.955 30.8818 341.718 30.826 342.345 30.7119C342.971 30.5982 343.478 30.424 343.849 30.1763C344.591 29.682 344.956 28.9353 344.956 27.9778C344.956 26.9307 344.606 26.074 343.977 25.571C343.36 25.0767 342.407 24.8527 341.278 24.8527H333.205H333.196H333.186H333.176H333.167H333.157H333.147H333.137H333.128H333.118H333.108H333.099H333.089H333.079H333.07H333.06H333.05H333.041H333.031H333.021H333.011H333.002H332.992H332.982H332.973H332.963H332.954H332.944H332.934H332.925H332.915H332.905H332.896H332.886H332.876H332.867H332.857H332.848H332.838H332.828H332.819H332.809H332.799H332.79H332.78H332.771H332.761H332.751H332.742H332.732H332.723H332.713H332.704H332.694H332.684H332.675H332.665H332.656H332.646H332.637H332.627H332.617H332.608H332.598H332.589H332.579H332.57H332.56H332.551H332.541H332.532H332.522H332.512H332.503H332.493H332.484H332.474H332.465H332.455H332.446H332.436H332.427H332.417H332.408H332.398H332.389H332.379H332.37H332.36H332.351H332.341H332.332H332.323H332.313H332.304H332.294H332.285H332.275H332.266H332.256H332.247H332.237H332.228H332.219H332.209H332.2H332.19H332.181H332.171H332.162H332.153H332.143H332.134H332.124H332.115H332.106H332.096H332.087H332.077H332.068H332.059H332.049H332.04H332.031H332.021H332.012H332.002H331.993H331.984H331.974H331.965H331.956H331.946H331.937H331.928H331.918H331.909H331.9H331.89H331.881H331.872H331.862H331.853H331.844H331.835H331.825H331.816H331.807H331.797H331.788H331.779H331.769H331.76H331.751H331.742H331.732H331.723H331.714H331.705H331.695H331.686H331.677H331.668H331.658H331.649H331.64H331.631H331.621H331.612H331.603H331.594H331.585H331.575H331.566H331.557H331.548H331.538H331.529H331.52H331.511H331.502H331.493H331.483H331.474H331.465H331.456H331.447H331.438H331.428H331.419H331.41H331.401H331.392H331.383H331.373H331.364H331.355H331.346H331.337H331.328H331.319H331.31H331.301H331.291H331.282H331.273H331.264H331.255H331.246H331.237H331.228H331.219H331.21H331.201H331.192H331.182H331.173H331.164H331.155H331.146H331.137H331.128H331.119H331.11H331.101H331.092H331.083H331.074H331.065H331.056H331.047H331.038H331.029H331.02H331.011H331.002H330.993H330.984H330.975H330.966H330.957H330.948H330.939H330.93H330.921H330.912H330.903H330.894H330.885H330.876H330.868H330.859H330.85H330.841H330.832H330.823H330.814H330.805H330.796H330.787H330.778H330.77H330.761H330.752H330.743H330.734H330.725H330.716H330.707H330.699H330.69H330.681H330.672H330.663H330.654H330.645H330.637H330.628H330.619H330.61H330.601H330.593H330.584H330.575H330.566H330.557H330.548H330.54H330.531H330.522H330.513H330.505H330.496H330.487H330.478H330.47H330.461H330.452H330.443H330.435H330.426H330.417H330.408H330.4H330.391H330.382H330.373H330.365H330.356H330.347H330.339H330.33H330.321H330.313H330.304H330.295H330.286H330.278H330.269H330.26H330.252H330.243H330.235H330.226H330.217H330.209H330.2H330.191H330.183H330.174H330.165H330.157H330.148H330.14H330.131H330.122H330.114H330.105H330.097H330.088H330.08H330.071H330.062H330.054H330.045H330.037H330.028H330.02H330.011H330.003H329.994H329.985H329.977H329.968H329.96H329.951H329.943H329.934H329.926H329.917H329.909H329.9H329.892H329.883H329.875H329.867H329.858H329.85H329.841H329.833H329.824H329.816H329.807H329.799H329.791H329.782H329.774H329.765H329.757H329.748H329.74H329.732H329.723H329.715H329.706H329.698H329.69H329.681H329.673H329.665H329.656H329.648H329.64H329.631H329.623H329.615H329.606H329.598H329.59H329.581H329.573H329.565H329.556H329.548H329.54H329.531H329.523H329.515H329.507H329.498H329.49H329.482H329.474H329.465H329.457H329.449H329.441H329.432H329.424H329.416H329.408H329.399H329.391H329.383H329.375H329.367H329.358H329.35H329.342H329.334H329.326H329.317H329.309H329.301H329.293H329.285H329.277H329.269H329.26H329.252H329.244H329.236H329.228H329.22H329.212H329.204H329.195H329.187H329.179H329.171H329.163H329.155H329.147H329.139H329.131H329.123H329.115H329.107H329.099H329.091H329.083H329.075H329.066H329.058H329.05H329.042H329.034H329.026H329.018H329.01H329.002H328.994H328.987H328.979H328.971H328.963H328.955H328.947H328.939H328.931H328.923H328.915H328.907H328.899H328.891H328.883H328.875H328.867H328.86H328.852H328.844H328.836H328.828H328.82H328.812H328.804H328.797H328.789H328.781H328.773H328.765H328.757H328.75H328.742H328.734H328.726H328.718H328.71H328.703H328.695H328.687H328.679H328.675C325.043 24.7423 322.568 24.081 321.085 22.9157C319.618 21.7629 318.859 19.8594 318.859 17.2515C318.859 14.8602 319.401 13.2711 320.448 12.1161C321.518 11.048 322.689 10.4096 324.074 10.0882C325.503 9.86871 327.366 9.65015 329.556 9.65015H338.845C341.593 9.65015 343.774 9.98036 345.285 10.5202C346.796 11.0597 347.953 11.9123 348.578 13.0585C349.188 14.1764 349.514 15.6012 349.541 17.4438H343.845C343.802 16.3044 343.453 15.2999 342.618 14.8228C341.795 14.3524 340.532 14.0158 338.734 14.0158H329.224C328.211 14.0158 327.312 14.1283 326.64 14.2403C325.903 14.3632 325.415 14.7358 324.956 15.1948L324.944 15.2074L324.933 15.2216C324.561 15.7172 324.33 16.4374 324.33 17.362C324.33 18.2929 324.564 19.0008 324.919 19.5917L324.925 19.6028L324.933 19.6131C325.308 20.1128 325.921 20.4745 326.64 20.5943C327.311 20.7061 328.1 20.8189 329.224 20.8189H339.73C342.043 20.8189 343.8 20.9291 345.333 21.1479C346.716 21.361 347.994 21.9992 349.063 23.0679C350.104 24.1092 350.648 25.6921 350.648 27.9778C350.648 30.2635 350.104 31.84 348.961 32.8796C347.777 33.9555 346.496 34.5942 345.002 34.8076C343.47 35.0265 341.602 35.1368 339.287 35.1368H329.556C325.701 35.1368 322.893 34.4735 321.3 33.3053Z" stroke="#F1F1F1" stroke-width="0.5"/>
<path d="M382.211 26.541V10.5355H388.789V35.1375H382.211V32.7336V32.2565L381.819 32.5281C380.415 33.5002 378.567 34.2645 376.26 34.9241C373.845 35.4724 371.322 35.801 368.581 35.801H368.47C365.163 35.801 362.548 35.4692 360.714 34.7141C358.887 33.9617 357.612 32.7883 356.867 31.0852C356.113 29.36 355.672 26.855 355.672 23.5553V10.5355H362.138V21.6755C362.138 23.6702 362.249 25.2461 362.59 26.4962C362.937 27.7692 363.636 28.8178 364.908 29.6271C366.183 30.438 368.118 30.8825 370.793 30.8825H370.903C373.366 30.8825 375.61 30.4348 377.523 29.6473C379.426 28.8636 381.004 27.8518 382.138 26.7178L382.211 26.6446V26.541Z" stroke="#F1F1F1" stroke-width="0.5"/>
<path d="M393.719 0.25H400.185V29.7176H393.719V0.25ZM400.185 30.2176V35.136H393.719V30.2176H400.185Z" stroke="#F1F1F1" stroke-width="0.5"/>
<path d="M409.862 4.64893L416.108 4.03465V10.1726V10.4226H416.358H426.503V15.2305H416.358H416.108V15.4805V24.1058C416.108 25.673 416.331 26.9333 416.798 27.8668C417.262 28.7947 417.855 29.3951 418.692 29.7541C419.515 30.1068 420.553 30.2167 421.887 30.2167H427.387V35.2457H422.223C419.027 35.1353 416.516 34.8047 414.674 34.155C412.957 33.5106 411.687 32.4457 410.945 30.8561C410.194 29.2476 409.862 26.9697 409.862 23.9952V15.3699V15.1199H409.612H403.67V10.4226H409.612H409.862V10.1726V4.64893Z" stroke="#F1F1F1" stroke-width="0.5"/>
<path d="M432.426 0.25H438.892V5.6108H432.426V0.25ZM432.426 14.9285V10.3129H438.892V30.5205V35.136H432.426V30.5205V14.9285Z" stroke="#F1F1F1" stroke-width="0.5"/>
<path d="M450.776 12.9231C452.18 11.9512 454.028 11.1869 456.445 10.5274C458.86 9.97886 461.383 9.65015 464.125 9.65015H464.235C467.543 9.65015 470.158 9.98201 471.991 10.7371C473.819 11.4895 475.093 12.6628 475.839 14.366C476.593 16.0912 477.034 18.5961 477.034 21.8958V34.9156H470.567V23.7757C470.567 21.781 470.457 20.2051 470.116 18.955C469.769 17.6819 469.069 16.6334 467.798 15.8241C466.523 15.0131 464.588 14.5687 461.913 14.5687H461.803C459.34 14.5687 457.096 15.0164 455.183 15.8039C453.28 16.5876 451.702 17.5994 450.568 18.7334L450.494 18.8066V18.9102V34.9156H443.917V10.3137H450.384V12.7176V13.1947L450.776 12.9231Z" stroke="#F1F1F1" stroke-width="0.5"/>
<path d="M484.726 43.8612V38.8427C486.165 39.3601 488.155 39.8669 490.516 40.2775L490.517 40.2778C493.186 40.7226 495.964 40.9447 498.963 40.9447H499.073C502.738 40.9447 505.651 40.5012 507.795 39.5982C508.873 39.1445 509.688 38.5686 510.234 37.8459C510.782 37.1198 511.045 36.2634 511.045 35.2762V31.2953V30.6917L510.618 31.1185C508.147 33.5891 503.811 34.805 497.525 34.805H497.414C491.908 34.805 487.882 33.8125 485.292 31.8709C482.83 29.9428 481.52 26.8223 481.52 22.3382C481.52 17.8549 482.829 14.7293 485.299 12.6892C487.774 10.6445 491.792 9.65015 497.414 9.65015H497.525C503.802 9.65015 508.036 10.9729 510.622 13.451L511.045 13.8563V13.2705V10.2031H517.622V35.055C517.622 37.0141 517.296 38.7525 516.755 40.2715C516.126 41.7321 514.646 43.0225 512.018 44.2272C509.415 45.42 505.369 45.9737 499.958 45.9737H499.847H499.839L499.831 45.9743C496.423 46.1941 493.346 45.9742 490.71 45.5349C488.143 45.107 486.122 44.5793 484.726 43.8612ZM498.741 30.4394V30.4395L498.748 30.4394C503.063 30.3287 506.223 29.777 508.166 28.5195C510.133 27.2468 511.045 25.2774 511.045 22.5594C511.045 19.8318 510.015 17.8675 508.055 16.5992C506.111 15.341 502.951 14.7898 498.741 14.7898H498.631C495.858 14.7898 493.614 15.0108 491.917 15.5767C490.228 16.1395 488.957 16.9383 488.142 18.1033C487.328 19.2668 486.991 20.7619 486.991 22.5594C486.991 25.3842 487.9 27.3519 489.753 28.6262C491.589 29.8885 494.642 30.4394 498.631 30.4394H498.741Z" stroke="#F1F1F1" stroke-width="0.5"/>
</svg>
