<svg width="73" height="36" viewBox="0 0 73 36" fill="none" xmlns="http://www.w3.org/2000/svg">
<path d="M10.9371 32.3C13.6037 32.3 15.7683 30.165 15.7683 27.535V22.77H10.9371C8.27061 22.77 6.10596 24.905 6.10596 27.535C6.10596 30.165 8.27061 32.3 10.9371 32.3Z" fill="#646464"/>
<path d="M6.10107 18C6.10107 15.37 8.26573 13.235 10.9323 13.235H15.7634V22.77H10.9323C8.26573 22.77 6.10107 20.635 6.10107 18.005V18Z" fill="#646464"/>
<path d="M6.10107 8.46495C6.10107 5.83495 8.26573 3.69995 10.9323 3.69995H15.7634V13.235H10.9323C8.26573 13.235 6.10107 11.1 6.10107 8.46995V8.46495Z" fill="#646464"/>
<path d="M15.7227 3.69995H20.5538C23.2204 3.69995 25.385 5.83495 25.385 8.46495C25.385 11.095 23.2204 13.23 20.5538 13.23H15.7227V3.69995Z" fill="#646464" fill-opacity="0.921569"/>
<path d="M25.4357 18C25.4357 20.63 23.2711 22.765 20.6045 22.765C17.938 22.765 15.7227 20.63 15.7227 18C15.7227 15.37 17.8873 13.235 20.5538 13.235C23.2204 13.235 25.385 15.37 25.385 18H25.4357Z" fill="#646464"/>
<path d="M30.7183 11.6V21.59H32.0211V16.82H35.154V15.58H32.0211V12.85H36.0919V11.6H30.7183ZM38.4492 13.63C38.9206 13.63 39.3008 13.255 39.3008 12.79C39.3008 12.325 38.9156 12 38.4492 12C37.9828 12 37.5975 12.375 37.5975 12.84C37.5975 13.065 37.6887 13.275 37.851 13.44C38.0132 13.605 38.2261 13.69 38.4593 13.69L38.4492 13.63ZM37.7901 14.89V21.59H39.0423V14.89H37.7496H37.7901ZM43.9343 14.69C42.2006 14.69 40.994 16.19 40.994 17.85C40.994 19.51 42.2107 21 43.9343 21C44.293 21.0062 44.649 20.9387 44.9798 20.8018C45.3105 20.665 45.6088 20.4617 45.8556 20.205V21.095C45.852 21.6297 45.6417 22.1429 45.2676 22.53C45.0786 22.7202 44.853 22.8712 44.604 22.9742C44.355 23.0772 44.0877 23.1302 43.8177 23.13C43.4031 23.1171 43.0014 22.985 42.6619 22.75L42.0028 23.865C42.5089 24.186 43.0935 24.3665 43.6948 24.3874C44.2962 24.4083 44.8921 24.2688 45.4199 23.9838C45.9476 23.6987 46.3877 23.2785 46.6936 22.7674C46.9996 22.2564 47.1602 21.6735 47.1585 21.08V14.88H45.8556V15.48C45.6088 15.2233 45.3105 15.02 44.9798 14.8831C44.649 14.7463 44.293 14.6838 43.9343 14.69ZM42.3019 17.85C42.2723 17.5249 42.3353 17.1981 42.484 16.9066C42.6327 16.615 42.8612 16.3702 43.1435 16.2C43.7214 15.85 44.4463 15.85 45.0192 16.2C45.592 16.55 45.9165 17.19 45.8607 17.85C45.8904 18.175 45.8273 18.5018 45.6786 18.7934C45.5299 19.085 45.3015 19.3297 45.0192 19.5C44.4412 19.85 43.7163 19.85 43.1435 19.5C42.5706 19.15 42.2462 18.51 42.3019 17.85Z" fill="#646464"/>
<path d="M51.8578 16C51.4831 16.0013 51.1242 16.1487 50.8592 16.41C50.5943 16.6714 50.4448 17.0254 50.4435 17.395V21.635H49.1406V14.935H50.4435V15.5C50.8389 14.98 51.4675 14.68 52.1265 14.69C52.9579 14.67 53.7335 15.11 54.1442 15.825C54.6511 15.125 55.3811 14.7 56.1719 14.69C57.6573 14.69 58.5799 15.87 58.585 17.33V21.595H57.2822V17.345C57.3203 17.0802 57.2808 16.8103 57.1684 16.5669C57.0559 16.3236 56.8751 16.1172 56.6474 15.972C56.4197 15.8269 56.1546 15.7491 55.8835 15.7478C55.6124 15.7466 55.3466 15.8219 55.1175 15.965C54.8897 16.1115 54.7094 16.3194 54.5979 16.564C54.4865 16.8087 54.4486 17.0797 54.4889 17.345V21.585H53.2367V17.35C53.2354 16.9804 53.086 16.6264 52.821 16.365C52.556 16.1037 52.1971 15.9563 51.8224 15.955L51.8578 16ZM65.5453 15.65C65.2488 15.3448 64.8921 15.1026 64.4972 14.9384C64.1023 14.7742 63.6775 14.6913 63.2489 14.695C61.3073 14.695 59.9537 16.315 59.9537 18.195C59.9537 20.075 61.3225 21.695 63.2489 21.695C63.6775 21.6986 64.1023 21.6158 64.4972 21.4516C64.8921 21.2873 65.2488 21.0452 65.5453 20.74V21.5H66.8482V14.8H65.5453V15.65ZM61.2363 18.25C61.1704 17.45 61.5658 16.68 62.2603 16.26C62.9549 15.84 63.7812 15.84 64.5213 16.26C64.8603 16.4675 65.135 16.7628 65.3156 17.1137C65.4962 17.4646 65.5756 17.8576 65.5453 18.25C65.6112 19.05 65.2158 19.82 64.5213 20.24C63.8268 20.66 63.0005 20.66 62.2603 20.24C61.9214 20.0325 61.6466 19.7372 61.4661 19.3863C61.2855 19.0354 61.206 18.6424 61.2363 18.25Z" fill="#646464"/>
</svg>
