<svg width="68" height="17" viewBox="0 0 68 17" fill="none" xmlns="http://www.w3.org/2000/svg">
<path d="M12.4986 4.81244C11.9695 4.26739 11.3947 3.84998 10.7853 3.56007C10.1759 3.27015 9.40548 3.13093 8.52011 3.13093C7.80728 3.13093 7.12878 3.25856 6.49653 3.51356C5.86401 3.76884 5.31207 4.12816 4.84072 4.59207C4.35775 5.05598 3.97834 5.62421 3.70237 6.28517C3.42641 6.94613 3.28849 7.67663 3.28849 8.48841C3.28849 9.30005 3.42641 10.0307 3.70237 10.6916C3.97834 11.3526 4.35775 11.9092 4.84072 12.373C5.32618 12.8412 5.89604 13.2112 6.51952 13.4631C7.1519 13.7183 7.84175 13.8458 8.56608 13.8458C9.33639 13.8458 10.0149 13.7414 10.5897 13.5211C11.1647 13.3007 11.6591 12.9992 12.0731 12.6283C12.349 12.373 12.602 12.0599 12.8204 11.6889C13.0389 11.3062 13.2114 10.8888 13.3379 10.4249H8.47414V7.64186H16.4078C16.4538 7.82745 16.4883 8.04768 16.5228 8.326C16.5574 8.60432 16.5689 8.85946 16.5689 9.12619C16.5689 10.2277 16.4078 11.225 16.0859 12.1412C15.764 13.0573 15.2695 13.8573 14.6256 14.5648C13.9013 15.3417 13.0389 15.9331 12.0271 16.3621C11.0152 16.7912 9.85384 17 8.55459 17C7.38176 17 6.27789 16.7912 5.24311 16.3621C4.20834 15.9331 3.29998 15.3417 2.51805 14.588C1.74775 13.8342 1.13835 12.9413 0.678358 11.9092C0.218503 10.8771 0 9.72905 0 8.5C0 7.27081 0.229859 6.13435 0.678358 5.09076C1.12686 4.04702 1.73626 3.15411 2.51805 2.40042C3.28835 1.6466 4.19685 1.06678 5.24311 0.637776C6.28966 0.208636 7.39326 0 8.55459 0C9.88846 0 11.0726 0.231818 12.0961 0.695731C13.1195 1.15964 14.0047 1.79742 14.7522 2.6092L12.4986 4.81244ZM32.8846 12.2803C32.8846 13.7067 32.3673 14.8547 31.3324 15.7244C30.2861 16.5709 29.0099 17 27.5036 17C26.1697 17 24.9854 16.6056 23.9621 15.8172C22.9387 15.0286 22.2374 13.9502 21.8465 12.5934L23.8241 11.77C23.9621 12.2571 24.1462 12.6977 24.3875 13.0919C24.629 13.4863 24.905 13.8226 25.2269 14.1009C25.546 14.3774 25.9071 14.6006 26.2963 14.7619C26.6872 14.9243 27.1011 15.0054 27.5381 15.0054C28.4808 15.0054 29.2627 14.7619 29.8606 14.2633C30.4585 13.7762 30.7575 13.1153 30.7575 12.3035C30.7575 11.6193 30.5045 11.0395 30.0102 10.5524C29.5502 10.0886 28.6763 9.62473 27.4 9.18414C26.1123 8.72023 25.3074 8.39554 24.9854 8.23327C23.2723 7.35195 22.4214 6.06481 22.4214 4.34852C22.4214 3.15411 22.8927 2.13369 23.8357 1.28714C24.8015 0.440593 25.9741 0.0115909 27.377 0.0115909C28.6073 0.0115909 29.6767 0.324821 30.5736 0.962459C31.4705 1.58864 32.0799 2.36565 32.3788 3.30493L30.4585 4.10498C30.2746 3.50197 29.9181 2.99183 29.3893 2.59747C28.8603 2.19179 28.205 1.99446 27.446 1.99446C26.6297 1.99446 25.9512 2.22642 25.3994 2.67874C24.8475 3.09615 24.5715 3.65279 24.5715 4.32534C24.5715 4.88198 24.79 5.36908 25.2269 5.77489C25.7099 6.18071 26.7562 6.66767 28.3544 7.22445C29.9872 7.78095 31.16 8.47682 31.8614 9.28846C32.5397 10.1002 32.8846 11.0975 32.8846 12.2803ZM44.3713 16.6288H42.3937V15.0865H42.3016C41.9912 15.6316 41.4968 16.0839 40.853 16.455C40.1976 16.8144 39.5191 17 38.8177 17C37.4609 17 36.4261 16.6056 35.7018 15.8288C34.9773 15.0519 34.6094 13.9386 34.6094 12.5005V5.49671H36.6791V12.3616C36.7251 14.1822 37.6334 15.0868 39.4042 15.0868C40.2319 15.0868 40.9219 14.7504 41.4738 14.0778C42.0256 13.4053 42.3016 12.5935 42.3016 11.6542V5.49657H44.3713V16.6288ZM49.0971 1.65819C49.0971 2.06415 48.959 2.41201 48.6716 2.70192C48.3843 2.9917 48.0392 3.13106 47.6368 3.13106C47.2344 3.13106 46.8894 2.9917 46.602 2.70192C46.3146 2.41201 46.1765 2.06415 46.1765 1.65819C46.1765 1.25251 46.3146 0.904505 46.602 0.614594C46.8894 0.324821 47.2344 0.185455 47.6368 0.185455C48.0392 0.185455 48.3841 0.324821 48.6716 0.614594C48.959 0.904505 49.0971 1.25237 49.0971 1.65819ZM48.6716 5.49657V16.6288H46.602V5.49657H48.6716ZM55.0301 16.8144C54.1332 16.8144 53.3859 16.5361 52.788 15.9796C52.1901 15.4228 51.8911 14.6342 51.8795 13.6371V7.4099H49.9364V5.49657H51.8681V2.08733H53.9378V5.49657H56.6399V7.4099H53.9377V12.9528C53.9377 13.6951 54.0759 14.1936 54.3632 14.4603C54.6507 14.7271 54.9726 14.8547 55.3292 14.8547C55.4901 14.8547 55.651 14.8314 55.812 14.7968C55.9729 14.7619 56.1109 14.7039 56.2489 14.6459L56.9042 16.5129C56.3869 16.7101 55.7545 16.8144 55.0301 16.8144ZM62.7799 16.9883C61.1585 16.9883 59.8248 16.4318 58.7669 15.3069C57.7206 14.182 57.1917 12.7674 57.1917 11.0627C57.1917 9.36959 57.6977 7.95495 58.7209 6.83008C59.7444 5.70535 61.0436 5.13698 62.6418 5.13698C64.2746 5.13698 65.5854 5.67058 66.5512 6.73735C67.5172 7.80413 68 9.30005 68 11.2251L67.977 11.4569H59.3074C59.3418 12.547 59.6984 13.4283 60.3882 14.0893C61.0781 14.7503 61.906 15.0865 62.8718 15.0865C64.1941 15.0865 65.229 14.4256 65.9763 13.0921L67.8275 13.9966C67.3331 14.9359 66.6433 15.6664 65.7694 16.1998C64.884 16.7217 63.8836 16.9883 62.7799 16.9883ZM59.4684 9.7176H65.8039C65.7464 8.94073 65.4358 8.30282 64.8726 7.79268C64.3091 7.2824 63.5502 7.02726 62.6073 7.02726C61.8255 7.02726 61.1585 7.27081 60.5953 7.75777C60.0203 8.25645 59.6524 8.90582 59.4684 9.7176Z" fill="#737373"/>
</svg>
