<svg width="247" height="48" viewBox="0 0 247 48" fill="none" xmlns="http://www.w3.org/2000/svg">
<path d="M146.403 17.8231L149.67 26.3982H143.34L146.403 17.8231ZM145.178 14.9647L138.032 33.748H140.687L142.525 28.6439H150.487L152.325 33.748H154.979L147.833 14.9647H145.179H145.178ZM183.764 33.748H186.213V14.9647H183.764V33.748ZM158.644 22.7225C159.461 21.4972 161.094 20.4767 162.727 20.4767C165.994 20.4767 167.628 22.7225 167.628 25.9895V33.952H165.178V26.3974C165.178 23.743 163.75 22.7232 161.912 22.7232C159.87 22.7232 158.441 24.765 158.441 26.6021V33.748H155.991V20.6814H158.441L158.645 22.7232L158.644 22.7225ZM169.67 29.8692C169.67 27.0108 172.325 25.3777 175.387 25.3777C177.225 25.3777 178.45 25.7863 178.858 26.195V25.7863C178.858 23.7445 177.225 22.7232 175.592 22.7232C174.163 22.7232 172.937 23.3359 172.529 24.5611L170.289 23.539C170.698 22.3138 172.331 20.4759 175.606 20.4759C178.669 20.4759 181.323 22.3138 181.323 25.9887V33.7472H179.077V31.9006H178.873C178.26 32.9211 176.831 34.1464 174.585 34.1464C171.931 34.1464 169.685 32.5133 169.685 29.8588M178.873 28.2257C178.873 28.2257 177.852 27.4084 175.81 27.4084C173.36 27.4084 172.339 28.8367 172.339 29.858C172.339 31.2864 173.767 31.8998 174.993 31.8998C176.831 31.8998 178.873 30.2667 178.873 28.2257Z" fill="#646464"/>
<path fill-rule="evenodd" clip-rule="evenodd" d="M189.677 39.4631L192.536 32.7179L187.432 20.8766H189.881L193.76 29.8596L197.639 20.8766H200.089L192.128 39.4631H189.678H189.677ZM225.609 25.1729C224.996 23.5382 223.567 22.5185 222.139 22.5185C220.097 22.5185 218.26 24.3563 218.26 27.01C218.26 29.6636 220.098 31.5014 222.139 31.5014C223.567 31.5014 224.997 30.4809 225.61 29.0518L227.652 30.277C226.631 32.5227 224.589 33.9511 222.139 33.9511C218.668 33.9511 215.81 30.888 215.81 27.01C215.81 22.9264 218.668 20.068 222.139 20.068C224.589 20.068 226.631 21.4964 227.652 23.7421L225.61 25.1705L225.609 25.1729Z" fill="#646464"/>
<path d="M234.389 34.1559C237.655 34.1559 239.289 32.318 239.289 30.0723C239.289 25.1721 232.143 27.0092 232.143 24.1524C232.143 23.1319 232.961 22.5193 234.389 22.5193C235.817 22.5193 237.247 23.1319 237.86 24.1524L239.288 22.724C238.471 21.7035 236.225 20.2744 234.184 20.2744C231.121 20.2744 229.489 22.1122 229.489 24.358C229.489 29.0534 236.839 27.4211 236.839 29.8707C236.839 31.096 236.021 31.9125 234.389 31.9125C232.757 31.9125 231.939 30.892 231.123 29.8707L229.285 31.2991C230.51 32.5244 232.348 34.1575 234.389 34.1575V34.1559ZM211.114 33.7472H213.564V20.6814H211.114V33.7472Z" fill="#646464"/>
<path fill-rule="evenodd" clip-rule="evenodd" d="M212.135 14.3521C213.156 14.3521 213.768 15.1694 213.768 15.9852C213.768 17.0057 212.951 17.6183 212.135 17.6183C211.32 17.6183 210.502 16.8009 210.502 15.9852C210.502 15.1694 211.32 14.3521 212.135 14.3521ZM208.665 31.707L209.074 33.5448H206.624C204.378 33.5448 203.358 31.9117 203.358 29.4612V23.1319H200.908V20.6822H203.358V16.8033H205.808V20.6822H208.666V23.1319H205.808V29.877C205.808 31.7149 207.236 31.7149 208.666 31.7149L208.665 31.707Z" fill="#646464"/>
<path d="M58.1957 22.5185V25.5816H65.3416C65.1377 27.2147 64.5243 28.4399 63.7085 29.2557C62.688 30.2762 61.0541 31.5015 58.1957 31.5015C53.9082 31.5015 50.4372 28.0305 50.4372 23.539C50.4372 19.2514 53.9082 15.5765 58.1957 15.5765C60.6454 15.5765 62.2793 16.597 63.5125 17.6183L65.5543 15.5765C63.7165 13.9434 61.4707 12.5134 58.2045 12.5134C52.2846 12.5134 47.1797 17.4136 47.1797 23.3343C47.1797 29.2549 52.2759 34.1543 58.1965 34.1543C61.4628 34.1543 63.9132 33.1338 65.7511 31.0912C67.7929 29.0494 68.4055 26.3958 68.4055 24.1492C68.4055 23.5366 68.4055 22.7208 68.2016 22.3114H58.2029L58.1957 22.5185ZM76.3664 20.0767C72.4875 20.0767 69.4244 22.9351 69.4244 27.0187C69.4244 31.1023 72.4875 33.9599 76.3664 33.9599C80.2453 33.9599 83.3084 30.8968 83.3084 27.0187C83.3084 22.9351 80.2453 20.0767 76.3664 20.0767ZM76.3664 31.3055C74.3246 31.3055 72.4875 29.4676 72.4875 27.0179C72.4875 24.5682 74.3254 22.7304 76.3664 22.7304C78.4074 22.7304 80.2453 24.3635 80.2453 27.0179C80.2453 29.6723 78.4074 31.3055 76.3664 31.3055ZM109.849 21.5051C109.032 20.6878 107.808 19.872 105.971 19.872C102.5 19.872 99.4372 22.9351 99.4372 26.814C99.4372 30.6928 102.5 33.7551 105.971 33.7551C107.604 33.7551 109.034 32.9378 109.645 32.122H109.849V33.1425C109.849 35.7969 108.42 37.2261 106.174 37.2261C104.337 37.2261 103.111 35.7977 102.703 34.7764L100.049 35.7969C100.866 37.6348 102.907 39.8805 106.174 39.8805C109.848 39.8805 112.919 37.8387 112.919 32.5307V19.8736H110.06V21.5067L109.849 21.5051ZM106.378 31.3055C104.337 31.3055 102.704 29.4676 102.704 27.0179C102.704 24.5682 104.337 22.7304 106.378 22.7304C108.419 22.7304 110.053 24.5682 110.053 27.0179C110.053 29.4676 108.419 31.3055 106.378 31.3055ZM91.474 20.0767C87.5951 20.0767 84.532 22.9351 84.532 27.0187C84.532 31.1023 87.5951 33.9599 91.474 33.9599C95.3529 33.9599 98.416 30.8968 98.416 27.0187C98.6199 22.9351 95.3529 20.0767 91.474 20.0767ZM91.474 31.3055C89.4322 31.3055 87.5951 29.4676 87.5951 27.0179C87.5951 24.5682 89.433 22.7304 91.474 22.7304C93.515 22.7304 95.3529 24.3635 95.3529 27.0179C95.3529 29.6723 93.515 31.3055 91.474 31.3055ZM115.157 12.719H118.221V33.9519H115.157V12.719ZM126.591 31.2975C124.958 31.2975 123.936 30.4802 123.12 29.2557L132.512 25.3768L132.103 24.5595C131.49 22.9264 129.653 20.068 126.183 20.068C122.509 20.068 119.65 22.9264 119.65 27.01C119.65 30.8888 122.713 33.9511 126.592 33.9511C129.858 33.9511 131.696 31.9093 132.512 30.888L130.062 29.2549C129.245 30.4802 128.224 31.2975 126.591 31.2975ZM126.387 22.7224C127.612 22.7224 128.633 23.335 129.041 24.3556L122.712 27.01C122.712 23.9469 124.754 22.7224 126.386 22.7224H126.387Z" fill="#646464"/>
<path fill-rule="evenodd" clip-rule="evenodd" d="M20.0339 39.2355H8.2846C7.59218 39.2355 6.92812 38.9604 6.43851 38.4708C5.94889 37.9812 5.67383 37.3171 5.67383 36.6247V30.9905C5.67383 30.2981 5.94889 29.634 6.43851 29.1444C6.92812 28.6548 7.59218 28.3797 8.2846 28.3797H15.7043V20.1268C15.7043 19.4344 15.9793 18.7703 16.469 18.2807C16.9586 17.7911 17.6226 17.5161 18.3151 17.5161H26.568V39.1585H20.041L20.0339 39.2355Z" fill="#646464"/>
<path fill-rule="evenodd" clip-rule="evenodd" d="M34.8052 39.2355H26.5522V10.1122C26.5522 9.41982 26.8273 8.75576 27.3169 8.26614C27.8065 7.77653 28.4706 7.50146 29.163 7.50146H34.7972C35.1401 7.50146 35.4796 7.56899 35.7963 7.7002C36.1131 7.8314 36.4009 8.02371 36.6433 8.26614C36.8857 8.50858 37.0781 8.79639 37.2093 9.11314C37.3405 9.42989 37.408 9.76939 37.408 10.1122V36.6326C37.339 38.0753 36.1716 39.2513 34.7893 39.2513L34.8052 39.2355Z" fill="#646464"/>
<path fill-rule="evenodd" clip-rule="evenodd" d="M37.3471 28.38V36.6246C37.3471 38.0674 36.1791 39.2354 34.7363 39.2354H26.4917V17.5245L37.3471 28.38Z" fill="#646464"/>
</svg>
