<svg width="111" height="38" viewBox="0 0 111 38" fill="none" xmlns="http://www.w3.org/2000/svg">
<path fill-rule="evenodd" clip-rule="evenodd" d="M76.8418 32.6657L73.1859 31.578V13.2195L76.8418 12.3516V32.6657ZM102.415 28.337C99.7638 28.348 97.6143 25.6782 97.5967 22.3713V22.3383C97.5967 19.0863 99.7374 16.4166 102.407 16.4166C105.076 16.4166 107.217 19.0863 107.217 22.3383C107.225 25.6453 105.076 28.326 102.433 28.337H102.415ZM110.705 22.3383C110.705 28.0513 106.996 32.6767 102.415 32.6767C97.8345 32.6767 94.1258 28.0513 94.1258 22.3383C94.1258 16.7023 97.8433 12.0769 102.424 12.0769C107.005 12.0769 110.705 16.7023 110.705 22.3383ZM63.6717 31.589L67.2659 32.5229V20.163C67.2659 14.2303 63.5572 12.1429 61.0025 12.1429C59.3199 12.1429 57.928 12.6482 56.7123 14.1644C55.4349 12.6482 53.9285 12.0659 52.7128 12.0659C50.9157 12.0659 49.4093 12.9998 48.361 14.5928V12.4944L44.7051 13.3624V31.578L48.361 32.5119V20.0202C48.361 17.9987 49.5238 16.6254 51.3121 16.6254C52.9947 16.6254 54.2104 17.9987 54.2104 20.0202V31.589L57.8047 32.5229V20.0202C57.8047 17.9987 59.0203 16.6254 60.7646 16.6254C62.4472 16.6254 63.6629 17.9987 63.6629 20.0202L63.6717 31.589ZM91.3949 12.0769L89.2454 12.4395C85.2459 13.5931 82.6383 15.1861 82.6383 20.6794V31.589L86.2942 32.4569V21.3276C86.2942 18.8007 87.4571 17.6361 89.2542 17.2076L91.4037 16.7792L91.3949 12.0769ZM73.362 4.55116C72.4899 5.6608 72.4899 7.41865 73.362 8.52828C74.2518 9.67088 75.723 9.68187 76.6303 8.57223L76.6656 8.52828C77.5377 7.42963 77.5377 5.64981 76.6656 4.55116C75.7318 3.4635 74.287 3.4635 73.362 4.55116Z" fill="#646464"/>
<path d="M7.13793 0H24.0079C27.5669 0 30.4564 3.60358 30.4564 8.04214V29.0813C30.4564 33.5199 27.5669 37.1235 24.0079 37.1235H7.13793C3.57894 37.1235 0.689453 33.5199 0.689453 29.0813V8.04214C0.689453 3.60358 3.57894 0 7.13793 0Z" fill="#646464"/>
<path d="M21.3746 4.98059H18.1063L20.8284 10.9463L14.8381 4.98059H11.5698L14.565 12.2756L8.30149 4.98059H5.0332L8.30149 14.2642L5.0332 32.8314H8.30149L14.565 12.9348L11.5698 32.8314H14.8381L20.8284 11.6164L18.1063 32.8314H21.3746L27.365 9.6169L21.3746 4.98059Z" fill="#101010"/>
</svg>
